<svg width="1280" height="400" viewBox="0 0 1280 400" fill="none" xmlns="http://www.w3.org/2000/svg">

  <rect width="1280" height="400" fill="#0C0F1A"/>

  <line x1="40"   y1="0" x2="40"   y2="400" stroke="#6C8EF5" stroke-opacity="0.05" stroke-width="1"/>
  <line x1="80"   y1="0" x2="80"   y2="400" stroke="#6C8EF5" stroke-opacity="0.05" stroke-width="1"/>
  <line x1="120"  y1="0" x2="120"  y2="400" stroke="#6C8EF5" stroke-opacity="0.05" stroke-width="1"/>
  <line x1="160"  y1="0" x2="160"  y2="400" stroke="#6C8EF5" stroke-opacity="0.05" stroke-width="1"/>
  <line x1="200"  y1="0" x2="200"  y2="400" stroke="#6C8EF5" stroke-opacity="0.05" stroke-width="1"/>
  <line x1="240"  y1="0" x2="240"  y2="400" stroke="#6C8EF5" stroke-opacity="0.05" stroke-width="1"/>
  <line x1="280"  y1="0" x2="280"  y2="400" stroke="#6C8EF5" stroke-opacity="0.05" stroke-width="1"/>
  <line x1="320"  y1="0" x2="320"  y2="400" stroke="#6C8EF5" stroke-opacity="0.05" stroke-width="1"/>
  <line x1="360"  y1="0" x2="360"  y2="400" stroke="#6C8EF5" stroke-opacity="0.05" stroke-width="1"/>
  <line x1="400"  y1="0" x2="400"  y2="400" stroke="#6C8EF5" stroke-opacity="0.05" stroke-width="1"/>
  <line x1="440"  y1="0" x2="440"  y2="400" stroke="#6C8EF5" stroke-opacity="0.05" stroke-width="1"/>
  <line x1="480"  y1="0" x2="480"  y2="400" stroke="#6C8EF5" stroke-opacity="0.05" stroke-width="1"/>
  <line x1="520"  y1="0" x2="520"  y2="400" stroke="#6C8EF5" stroke-opacity="0.05" stroke-width="1"/>
  <line x1="560"  y1="0" x2="560"  y2="400" stroke="#6C8EF5" stroke-opacity="0.05" stroke-width="1"/>
  <line x1="600"  y1="0" x2="600"  y2="400" stroke="#6C8EF5" stroke-opacity="0.05" stroke-width="1"/>
  <line x1="640"  y1="0" x2="640"  y2="400" stroke="#6C8EF5" stroke-opacity="0.05" stroke-width="1"/>
  <line x1="680"  y1="0" x2="680"  y2="400" stroke="#6C8EF5" stroke-opacity="0.05" stroke-width="1"/>
  <line x1="720"  y1="0" x2="720"  y2="400" stroke="#6C8EF5" stroke-opacity="0.05" stroke-width="1"/>
  <line x1="760"  y1="0" x2="760"  y2="400" stroke="#6C8EF5" stroke-opacity="0.05" stroke-width="1"/>
  <line x1="800"  y1="0" x2="800"  y2="400" stroke="#6C8EF5" stroke-opacity="0.05" stroke-width="1"/>
  <line x1="840"  y1="0" x2="840"  y2="400" stroke="#6C8EF5" stroke-opacity="0.05" stroke-width="1"/>
  <line x1="880"  y1="0" x2="880"  y2="400" stroke="#6C8EF5" stroke-opacity="0.05" stroke-width="1"/>
  <line x1="920"  y1="0" x2="920"  y2="400" stroke="#6C8EF5" stroke-opacity="0.05" stroke-width="1"/>
  <line x1="960"  y1="0" x2="960"  y2="400" stroke="#6C8EF5" stroke-opacity="0.05" stroke-width="1"/>
  <line x1="1000" y1="0" x2="1000" y2="400" stroke="#6C8EF5" stroke-opacity="0.05" stroke-width="1"/>
  <line x1="1040" y1="0" x2="1040" y2="400" stroke="#6C8EF5" stroke-opacity="0.05" stroke-width="1"/>
  <line x1="1080" y1="0" x2="1080" y2="400" stroke="#6C8EF5" stroke-opacity="0.05" stroke-width="1"/>
  <line x1="1120" y1="0" x2="1120" y2="400" stroke="#6C8EF5" stroke-opacity="0.05" stroke-width="1"/>
  <line x1="1160" y1="0" x2="1160" y2="400" stroke="#6C8EF5" stroke-opacity="0.05" stroke-width="1"/>
  <line x1="1200" y1="0" x2="1200" y2="400" stroke="#6C8EF5" stroke-opacity="0.05" stroke-width="1"/>
  <line x1="1240" y1="0" x2="1240" y2="400" stroke="#6C8EF5" stroke-opacity="0.05" stroke-width="1"/>
  <line x1="0" y1="40"  x2="1280" y2="40"  stroke="#6C8EF5" stroke-opacity="0.05" stroke-width="1"/>
  <line x1="0" y1="80"  x2="1280" y2="80"  stroke="#6C8EF5" stroke-opacity="0.05" stroke-width="1"/>
  <line x1="0" y1="120" x2="1280" y2="120" stroke="#6C8EF5" stroke-opacity="0.05" stroke-width="1"/>
  <line x1="0" y1="160" x2="1280" y2="160" stroke="#6C8EF5" stroke-opacity="0.05" stroke-width="1"/>
  <line x1="0" y1="200" x2="1280" y2="200" stroke="#6C8EF5" stroke-opacity="0.05" stroke-width="1"/>
  <line x1="0" y1="240" x2="1280" y2="240" stroke="#6C8EF5" stroke-opacity="0.05" stroke-width="1"/>
  <line x1="0" y1="280" x2="1280" y2="280" stroke="#6C8EF5" stroke-opacity="0.05" stroke-width="1"/>
  <line x1="0" y1="320" x2="1280" y2="320" stroke="#6C8EF5" stroke-opacity="0.05" stroke-width="1"/>
  <line x1="0" y1="360" x2="1280" y2="360" stroke="#6C8EF5" stroke-opacity="0.05" stroke-width="1"/>

  <radialGradient id="glowL" cx="0" cy="0.5" r="0.45" gradientUnits="objectBoundingBox">
    <stop offset="0%" stop-color="#6C8EF5" stop-opacity="0.18"/>
    <stop offset="100%" stop-color="#6C8EF5" stop-opacity="0"/>
  </radialGradient>
  <rect width="700" height="400" fill="url(#glowL)"/>

  <radialGradient id="glowR" cx="1" cy="0.5" r="0.5" gradientUnits="objectBoundingBox">
    <stop offset="0%" stop-color="#A78BFA" stop-opacity="0.12"/>
    <stop offset="100%" stop-color="#A78BFA" stop-opacity="0"/>
  </radialGradient>
  <rect width="1280" height="400" fill="url(#glowR)"/>

  <linearGradient id="fade" x1="0" y1="0" x2="1" y2="0">
    <stop offset="55%" stop-color="#0C0F1A" stop-opacity="0"/>
    <stop offset="100%" stop-color="#0C0F1A" stop-opacity="0.5"/>
  </linearGradient>
  <rect width="1280" height="400" fill="url(#fade)"/>

  <!-- Avatar -->
  <circle cx="960" cy="200" r="175" fill="#6C8EF5" fill-opacity="0.03"/>
  <circle cx="960" cy="200" r="148" fill="#161929" stroke="#6C8EF5" stroke-opacity="0.18" stroke-width="1.5"/>

  <!-- Avatar SVG: 204x213, scale 1.3 → 265x277, centre cx=960 cy=200 → translate(827, 62) -->
  <g transform="translate(827, 62) scale(1.3)">
    <linearGradient id="bh" x1="102" y1="0" x2="102" y2="212" gradientUnits="userSpaceOnUse">
      <stop offset="0.25" stop-color="#624432"/><stop offset="1" stop-color="#866754"/>
    </linearGradient>
    <radialGradient id="fc" cx="0" cy="0" r="1" gradientUnits="userSpaceOnUse" gradientTransform="translate(99 153) rotate(-73.75) scale(157 152)">
      <stop offset="0.66" stop-color="#FECEAE"/><stop offset="1" stop-color="#987B68"/>
    </radialGradient>
    <linearGradient id="eb1" x1="69" y1="67" x2="69" y2="76" gradientUnits="userSpaceOnUse">
      <stop offset="0.25" stop-color="#624432"/><stop offset="1" stop-color="#866754"/>
    </linearGradient>
    <linearGradient id="eb2" x1="129" y1="67" x2="129" y2="76" gradientUnits="userSpaceOnUse">
      <stop offset="0.25" stop-color="#624432"/><stop offset="1" stop-color="#866754"/>
    </linearGradient>
    <linearGradient id="bd" x1="99" y1="149" x2="99" y2="187" gradientUnits="userSpaceOnUse">
      <stop offset="0.25" stop-color="#624432"/><stop offset="1" stop-color="#866754"/>
    </linearGradient>
    <linearGradient id="ms1" x1="83" y1="125" x2="85" y2="134" gradientUnits="userSpaceOnUse">
      <stop offset="0.25" stop-color="#624432"/><stop offset="1" stop-color="#866754"/>
    </linearGradient>
    <linearGradient id="ms2" x1="114" y1="125" x2="112" y2="134" gradientUnits="userSpaceOnUse">
      <stop offset="0.25" stop-color="#624432"/><stop offset="1" stop-color="#866754"/>
    </linearGradient>
    <linearGradient id="ep1" x1="124" y1="84" x2="124" y2="101" gradientUnits="userSpaceOnUse">
      <stop stop-color="#3A536C"/><stop offset="1" stop-color="#708DA9"/>
    </linearGradient>
    <linearGradient id="ep2" x1="75" y1="84" x2="75" y2="101" gradientUnits="userSpaceOnUse">
      <stop stop-color="#3A536C"/><stop offset="1" stop-color="#708DA9"/>
    </linearGradient>
    <path d="M180.665 68.4512C167.5 -4.44566 102.063 0.0543454 102.063 0.0543454C102.063 0.0543454 34 -0.945633 23.3355 69.2352C26.9517 93.9056 7.36331 100.525 4.6511 115.567C1.93888 130.611 9.473 127.301 10.9798 139.636C12.4863 151.972 1.33602 148.963 0.13062 160.997C-1.07478 173.032 6.45935 172.731 6.45935 180.854C6.45935 188.977 -10.7182 205.224 18.5136 212.144C30.5682 204.923 50.4578 211.542 55.8825 182.659C70.0462 179.049 67.0328 158.29 67.0328 158.29C67.0328 158.29 68 134.5 100.5 134.5C133 134.5 136.967 157.506 136.967 157.506C136.967 157.506 133.954 178.265 148.118 181.876C153.542 210.758 173.432 204.139 185.487 211.36C214.718 204.44 197.541 188.193 197.541 180.07C197.541 171.947 205.075 172.248 203.87 160.213C202.664 148.179 191.514 151.188 193.02 138.853C194.527 126.517 202.061 129.827 199.349 114.784C196.637 99.7406 177.048 93.1217 180.665 68.4512Z" fill="url(#bh)"/>
    <path d="M99.086 1.90234C129.487 1.90234 154.353 37.319 156.231 82.0566C157.065 81.6302 162.411 79.0923 165.461 82.4141C168.776 86.0244 176.611 111.899 153.106 118.217C152.902 118.271 152.702 118.321 152.506 118.368C144.221 150.385 123.428 173.092 99.086 173.092C74.6821 173.092 53.8449 150.269 45.6026 118.123C23.0108 111.463 30.7126 86.1056 33.9922 82.5332C36.3196 79.9984 39.9833 80.8769 41.96 81.624C43.9788 37.0909 68.7836 1.90245 99.086 1.90234Z" fill="url(#fc)"/>
    <path d="M129.633 10.0173C129.633 10.0173 105.5 -10.5 67.8174 8.59437C59.9948 17.0693 51 33 45.8545 41.5C40.8008 50.3832 45.852 52.13 45.8545 52.1373C45.9436 52.1322 71.7744 50.6364 97.9043 27.5895C99.7094 25.9974 101.337 24.5201 102.806 23.153C111.676 28.2531 133.69 40.1285 148.317 41.3063C167.002 42.8106 129.633 10.0173 129.633 10.0173Z" fill="#624432"/>
    <path d="M53.5808 72.3918C53.5808 70.4823 55.6902 69.5337 57.0463 68.932C57.0463 68.932 60.1318 67.9129 66.3767 67.4277C70.4538 67.1106 68.4526 67.1084 72.5295 67.4277C78.7069 67.911 81.758 68.932 81.758 68.932C83.1141 69.5337 85.2235 70.4823 85.2235 72.3918C85.2235 74.3013 83.6706 75.8516 81.758 75.8516C81.758 75.8516 78.751 74.8224 72.6606 74.3473C68.4678 74.0202 70.5264 74.0243 66.3332 74.3473C60.117 74.8265 57.0463 75.8516 57.0463 75.8516C55.1337 75.8516 53.5808 74.3013 53.5808 72.3918Z" fill="url(#eb1)"/>
    <path d="M144.893 72.3918C144.893 70.4823 142.783 69.5337 141.427 68.932C141.427 68.932 138.342 67.9129 132.097 67.4277C128.02 67.1106 130.021 67.1084 125.944 67.4277C119.767 67.911 116.716 68.932 116.716 68.932C115.36 69.5337 113.25 70.4823 113.25 72.3918C113.25 74.3013 114.803 75.8516 116.716 75.8516C116.716 75.8516 119.723 74.8224 125.813 74.3473C130.006 74.0202 127.947 74.0243 132.14 74.3473C138.357 74.8265 141.427 75.8516 141.427 75.8516C143.34 75.8516 144.893 74.3013 144.893 72.3918Z" fill="url(#eb2)"/>
    <path d="M82.0591 138.099C82.0591 137.652 82.5434 137.289 83.14 137.289H114.731C115.327 137.289 115.812 137.652 115.812 138.099C115.812 140.89 112.785 143.156 109.057 143.156H88.8138C85.086 143.156 82.0591 140.89 82.0591 138.099Z" fill="#EEA8A0"/>
    <path d="M98.6928 186.931H93.5578C82.8127 186.931 77.3542 177.003 77.3542 177.003C77.3542 177.003 71.0819 162.261 74.4793 164.066C77.877 165.871 78.1383 165.871 81.5357 165.871C84.9334 165.871 87.0242 159.553 87.0242 159.553V157.447C87.0242 153.296 92.1081 150.226 95.7713 149.324H101.798C105.363 150.377 110.804 153.296 110.804 157.447V159.553C110.804 159.553 112.994 165.871 116.554 165.871C120.113 165.871 120.387 165.871 123.946 164.066C127.505 162.261 120.935 177.003 120.935 177.003C120.935 177.003 116.554 186.931 103.959 186.931H98.6928Z" fill="url(#bd)"/>
    <path d="M76.4526 126.538L94.891 123.176C95.3685 123.089 95.8754 123.192 96.3004 123.462C96.7253 123.732 97.0334 124.147 97.1569 124.615C97.6509 126.49 97.3659 128.427 96.3647 129.999C95.3635 131.571 93.7281 132.649 91.8182 132.997L72.2997 136.556C72.1087 136.591 71.9059 136.55 71.7359 136.442C71.5659 136.334 71.4427 136.168 71.3933 135.981L71.1139 134.92C70.62 133.046 70.9049 131.109 71.9061 129.537C72.9073 127.965 74.5428 126.887 76.4526 126.538Z" fill="url(#ms1)"/>
    <path d="M120.816 126.538L102.377 123.176C101.9 123.089 101.393 123.192 100.968 123.462C100.543 123.732 100.235 124.147 100.111 124.615C99.6173 126.49 99.9023 128.427 100.904 129.999C101.905 131.571 103.54 132.649 105.45 132.998L124.969 136.556C125.16 136.591 125.362 136.55 125.532 136.442C125.702 136.334 125.825 136.168 125.875 135.981L126.154 134.92C126.648 133.046 126.363 131.109 125.362 129.537C124.361 127.965 122.725 126.887 120.816 126.538Z" fill="url(#ms2)"/>
    <path d="M129.828 85.1767L121.172 85.0591C118.844 85.0275 116.571 85.9201 114.855 87.5406C113.139 89.161 112.12 91.3766 112.021 93.6999L111.929 95.89C111.879 97.0516 112.295 98.172 113.083 99.0046C113.872 99.8372 114.969 100.314 116.133 100.33L131.374 100.537C132.239 100.548 133.102 100.39 133.915 100.071C134.728 99.7514 135.475 99.2773 136.112 98.6755C136.749 98.0738 137.265 97.3561 137.63 96.5634C137.994 95.7708 138.201 94.9188 138.237 94.056C138.336 91.7327 137.505 89.4919 135.928 87.8268C134.351 86.1616 132.157 85.2083 129.828 85.1767Z" fill="white"/>
    <path d="M117.729 90.4453C117.881 86.8753 120.904 84.0206 124.482 84.0692C128.06 84.1178 130.838 87.0513 130.687 90.6213L130.509 94.8269C130.358 98.3969 127.334 101.252 123.756 101.203C120.178 101.154 117.4 98.2209 117.551 94.6509L117.729 90.4453Z" fill="url(#ep1)"/>
    <path d="M68.9906 85.1766L77.6468 85.0591C79.9753 85.0275 82.2476 85.9201 83.9637 87.5405C85.6798 89.161 86.6992 91.3766 86.7976 93.6999L86.8903 95.8899C86.9395 97.0516 86.5242 98.172 85.7357 99.0046C84.9472 99.8372 83.8501 100.314 82.6858 100.33L67.4447 100.537C66.58 100.548 65.7165 100.39 64.9036 100.071C64.0907 99.7514 63.3443 99.2773 62.707 98.6755C62.0697 98.0737 61.554 97.356 61.1893 96.5634C60.8247 95.7708 60.6182 94.9188 60.5816 94.056C60.4833 91.7326 61.3139 89.4919 62.8909 87.8267C64.4679 86.1615 66.662 85.2083 68.9906 85.1766Z" fill="white"/>
    <path d="M81.8841 90.4459C81.7329 86.8759 78.7098 84.0212 75.1317 84.0698C71.5537 84.1184 68.7756 87.0519 68.9268 90.6219L69.1049 94.8275C69.256 98.3975 72.2792 101.252 75.8572 101.204C79.4353 101.155 82.2133 98.2215 82.0622 94.6515L81.8841 90.4459Z" fill="url(#ep2)"/>
  </g>

  <!-- Séparateur vertical pointillé -->
  <line x1="620" y1="72" x2="620" y2="328" stroke="#6C8EF5" stroke-opacity="0.1" stroke-width="1" stroke-dasharray="4 6"/>

  <!-- Texte gauche -->
  <text x="72" y="136" font-family="'Segoe UI', 'Helvetica Neue', Arial, sans-serif" font-size="14" fill="#6C8EF5" fill-opacity="0.9" letter-spacing="4">HELLO, I'M</text>
  <text x="68" y="208" font-family="'Segoe UI', 'Helvetica Neue', Arial, sans-serif" font-size="72" font-weight="700" fill="#FFFFFF" letter-spacing="-2">Kevin</text>
  <text x="68" y="274" font-family="'Segoe UI', 'Helvetica Neue', Arial, sans-serif" font-size="72" font-weight="700" fill="#FFFFFF" fill-opacity="0.28" letter-spacing="-2">Stefanelli</text>
  <text x="72" y="314" font-family="'Segoe UI', 'Helvetica Neue', Arial, sans-serif" font-size="16" fill="#FFFFFF" fill-opacity="0.4">Apprenti développeur · Ri7 · CDA</text>

  <!-- Tags stack -->
  <rect x="72"  y="336" width="108" height="28" rx="5" fill="#3178C6" fill-opacity="0.15" stroke="#3178C6" stroke-opacity="0.4" stroke-width="1"/>
  <text x="126" y="355" font-family="monospace,'Courier New'" font-size="13" fill="#3178C6" text-anchor="middle">TypeScript</text>

  <rect x="192" y="336" width="72"  height="28" rx="5" fill="#61DAFB" fill-opacity="0.1"  stroke="#61DAFB" stroke-opacity="0.35" stroke-width="1"/>
  <text x="228" y="355" font-family="monospace,'Courier New'" font-size="13" fill="#61DAFB" text-anchor="middle">React</text>

  <rect x="276" y="336" width="78"  height="28" rx="5" fill="#5B8DEF" fill-opacity="0.12" stroke="#5B8DEF" stroke-opacity="0.4"  stroke-width="1"/>
  <text x="315" y="355" font-family="monospace,'Courier New'" font-size="13" fill="#7EB8F7" text-anchor="middle">SolidJS</text>

  <rect x="366" y="336" width="84"  height="28" rx="5" fill="#FFFFFF"  fill-opacity="0.05" stroke="#FFFFFF" stroke-opacity="0.18" stroke-width="1"/>
  <text x="408" y="355" font-family="monospace,'Courier New'" font-size="13" fill="#FFFFFF" fill-opacity="0.65" text-anchor="middle">Symfony</text>

</svg>
