<svg width="1000" height="200" viewBox="0 0 1000 200" fill="none" xmlns="http://www.w3.org/2000/svg">
<g clip-path="url(#clip0_31_32)">
<path d="M0 0H1000V100C1000 147.14 1000 170.711 985.355 185.355C970.711 200 947.14 200 900 200H100C52.8596 200 29.2893 200 14.6447 185.355C0 170.711 0 147.14 0 100V0Z" fill="url(#paint0_radial_31_32)"/>
<g filter="url(#filter0_d_31_32)">
<path d="M148.129 75.8824C139.74 29.15 98.0404 32.0348 98.0404 32.0348C98.0404 32.0348 54.6667 31.3938 47.8707 76.385C50.1751 92.2006 37.6923 96.4438 35.9639 106.087C34.2356 115.731 39.0367 113.61 39.9969 121.517C40.957 129.425 33.8514 127.497 33.0832 135.211C32.3151 142.926 37.1162 142.734 37.1162 147.941C37.1162 153.149 26.1698 163.564 44.7979 168C52.4797 163.371 65.1544 167.614 68.6114 149.098C77.6372 146.784 75.717 133.476 75.717 133.476C75.717 133.476 76.3333 118.225 97.0441 118.225C117.755 118.225 120.283 132.973 120.283 132.973C120.283 132.973 118.363 146.281 127.389 148.596C130.846 167.112 143.52 162.868 151.202 167.497C169.83 163.061 158.884 152.646 158.884 147.439C158.884 142.231 163.685 142.424 162.917 134.709C162.149 126.994 155.043 128.923 156.003 121.015C156.963 113.107 161.764 115.229 160.036 105.585C158.308 95.9412 145.825 91.698 148.129 75.8824Z" fill="url(#paint1_linear_31_32)"/>
<path d="M96.1429 33.2195C115.516 33.2195 131.359 55.9253 132.555 84.6063C133.075 84.3384 136.493 82.6994 138.441 84.8338C140.553 87.1485 145.546 103.736 130.567 107.786C130.437 107.821 130.308 107.853 130.183 107.884C124.903 128.408 111.655 142.965 96.1429 142.965C80.5913 142.965 67.3141 128.333 62.0619 107.724C47.6643 103.455 52.5714 87.2006 54.6615 84.91C56.1454 83.2841 58.4824 83.8479 59.7416 84.327C61.0281 55.7781 76.8327 33.2197 96.1429 33.2195Z" fill="url(#paint2_radial_31_32)"/>
<path d="M115.609 38.4218C115.609 38.4218 100.23 25.2687 76.2169 37.5096C71.2319 42.9427 65.5 53.1555 62.221 58.6046C59.0005 64.2994 62.2194 65.4192 62.221 65.4239C62.2778 65.4207 78.7386 64.4617 95.39 49.6869C96.5403 48.6662 97.5774 47.7192 98.5134 46.8428C104.166 50.1124 118.194 57.7254 127.516 58.4804C139.422 59.4448 115.609 38.4218 115.609 38.4218Z" fill="#624432"/>
<path d="M67.1446 78.4086C67.1446 77.1844 68.4888 76.5763 69.353 76.1906C69.353 76.1906 71.3193 75.5372 75.2988 75.2262C77.897 75.023 76.6217 75.0215 79.2197 75.2262C83.1563 75.536 85.1007 76.1906 85.1007 76.1906C85.9648 76.5763 87.309 77.1844 87.309 78.4086C87.309 79.6327 86.3195 80.6266 85.1007 80.6266C85.1007 80.6266 83.1844 79.9668 79.3033 79.6622C76.6314 79.4525 77.9432 79.4551 75.2711 79.6622C71.3098 79.9694 69.353 80.6266 69.353 80.6266C68.1342 80.6266 67.1446 79.6327 67.1446 78.4086ZM75.2988 75.2262C77.897 75.023 76.6217 75.0215 79.2197 75.2262H75.2988ZM79.3033 79.6622C76.6314 79.4525 77.9432 79.4551 75.2711 79.6622H79.3033Z" fill="url(#paint3_linear_31_32)"/>
<path d="M125.334 78.4086C125.334 77.1844 123.989 76.5763 123.125 76.1906C123.125 76.1906 121.159 75.5372 117.179 75.2262C114.581 75.023 115.856 75.0215 113.258 75.2262C109.322 75.536 107.378 76.1906 107.378 76.1906C106.513 76.5763 105.169 77.1844 105.169 78.4086C105.169 79.6327 106.159 80.6266 107.378 80.6266C107.378 80.6266 109.294 79.9668 113.175 79.6622C115.847 79.4525 114.535 79.4551 117.207 79.6622C121.168 79.9694 123.125 80.6266 123.125 80.6266C124.344 80.6266 125.334 79.6327 125.334 78.4086ZM117.179 75.2262C114.581 75.023 115.856 75.0215 113.258 75.2262H117.179ZM113.175 79.6622C115.847 79.4525 114.535 79.4551 117.207 79.6622H113.175Z" fill="url(#paint4_linear_31_32)"/>
<g filter="url(#filter1_d_31_32)">
<path d="M85.2925 120.532C85.2925 120.245 85.6012 120.013 85.9813 120.013H106.113C106.493 120.013 106.801 120.245 106.801 120.532C106.801 122.321 104.873 123.774 102.497 123.774H89.597C87.2214 123.774 85.2925 122.321 85.2925 120.532Z" fill="#EEA8A0"/>
</g>
<path d="M95.8924 151.837H92.6201C85.7728 151.837 82.2943 145.472 82.2943 145.472C82.2943 145.472 78.2973 136.021 80.4622 137.179C82.6274 138.336 82.794 138.336 84.959 138.336C87.1242 138.336 88.4565 134.286 88.4565 134.286V132.935C88.4565 130.274 91.6963 128.306 94.0307 127.728H97.8714C100.143 128.403 103.61 130.274 103.61 132.935V134.286C103.61 134.286 105.006 138.336 107.274 138.336C109.543 138.336 109.717 138.336 111.985 137.179C114.253 136.021 110.066 145.472 110.066 145.472C110.066 145.472 107.274 151.837 99.2485 151.837H95.8924Z" fill="url(#paint5_linear_31_32)"/>
<path d="M81.7198 113.121L93.4697 110.965C93.774 110.91 94.097 110.975 94.3678 111.148C94.6386 111.321 94.835 111.587 94.9137 111.888C95.2284 113.09 95.0468 114.331 94.4088 115.339C93.7708 116.347 92.7286 117.038 91.5115 117.261L79.0733 119.543C78.9516 119.565 78.8223 119.539 78.714 119.47C78.6057 119.401 78.5272 119.294 78.4957 119.174L78.3177 118.494C78.0029 117.292 78.1845 116.051 78.8225 115.043C79.4605 114.035 80.5027 113.344 81.7198 113.121Z" fill="url(#paint6_linear_31_32)"/>
<path d="M109.99 113.121L98.2403 110.965C97.9361 110.91 97.613 110.975 97.3422 111.148C97.0714 111.321 96.8751 111.587 96.7964 111.888C96.4816 113.09 96.6632 114.331 97.3012 115.339C97.9392 116.347 98.9814 117.038 100.198 117.261L112.637 119.543C112.758 119.565 112.888 119.539 112.996 119.47C113.104 119.401 113.183 119.294 113.214 119.174L113.392 118.494C113.707 117.292 113.526 116.051 112.888 115.043C112.249 114.035 111.207 113.344 109.99 113.121Z" fill="url(#paint7_linear_31_32)"/>
<path d="M115.734 86.6046L110.218 86.5293C108.734 86.509 107.286 87.0812 106.192 88.1201C105.098 89.1589 104.449 90.5793 104.386 92.0687L104.327 93.4727C104.296 94.2174 104.56 94.9356 105.063 95.4694C105.565 96.0031 106.264 96.3087 107.006 96.3188L116.719 96.4515C117.27 96.4591 117.82 96.3576 118.338 96.1529C118.856 95.9481 119.332 95.6442 119.738 95.2584C120.144 94.8727 120.473 94.4126 120.705 93.9044C120.937 93.3963 121.069 92.8501 121.092 92.297C121.155 90.8075 120.626 89.3711 119.621 88.3036C118.616 87.236 117.218 86.6249 115.734 86.6046Z" fill="white"/>
<mask id="mask0_31_32" style="mask-type:alpha" maskUnits="userSpaceOnUse" x="104" y="86" width="18" height="11">
<path d="M115.734 86.6046L110.217 86.5293C108.734 86.509 107.286 87.0812 106.192 88.1201C105.098 89.1589 104.449 90.5793 104.386 92.0687L104.327 93.4727C104.296 94.2174 104.56 94.9356 105.063 95.4694C105.565 96.0031 106.264 96.3087 107.006 96.3188L116.719 96.4515C117.27 96.4591 117.82 96.3576 118.338 96.1529C118.856 95.9481 119.332 95.6442 119.738 95.2584C120.144 94.8727 120.473 94.4126 120.705 93.9044C120.937 93.3963 121.069 92.8501 121.092 92.297C121.155 90.8075 120.626 89.3711 119.621 88.3036C118.616 87.236 117.218 86.6249 115.734 86.6046Z" fill="white"/>
</mask>
<g mask="url(#mask0_31_32)">
<path d="M108.024 89.9822C108.12 87.6935 110.046 85.8635 112.327 85.8946C114.607 85.9258 116.377 87.8064 116.281 90.095L116.167 92.7911C116.071 95.0797 114.144 96.9098 111.864 96.8786C109.584 96.8475 107.814 94.9669 107.91 92.6783L108.024 89.9822Z" fill="url(#paint8_linear_31_32)"/>
<ellipse cx="0.95613" cy="1.60228" rx="0.95613" ry="1.60228" transform="matrix(0.977893 0.209104 -0.206726 0.978399 109.496 88.4146)" fill="white" fill-opacity="0.25"/>
</g>
<path d="M76.9645 86.6046L82.4807 86.5293C83.9646 86.509 85.4126 87.0812 86.5062 88.1201C87.5998 89.1589 88.2494 90.5793 88.3121 92.0687L88.3712 93.4727C88.4026 94.2174 88.1379 94.9356 87.6354 95.4694C87.1329 96.0031 86.4338 96.3087 85.6919 96.3188L75.9794 96.4515C75.4284 96.4591 74.8781 96.3576 74.3601 96.1529C73.8421 95.9481 73.3664 95.6442 72.9603 95.2584C72.5542 94.8727 72.2255 94.4126 71.9932 93.9044C71.7608 93.3963 71.6292 92.8501 71.6059 92.297C71.5432 90.8075 72.0725 89.3711 73.0775 88.3036C74.0824 87.236 75.4806 86.6249 76.9645 86.6046Z" fill="white"/>
<mask id="mask1_31_32" style="mask-type:alpha" maskUnits="userSpaceOnUse" x="71" y="86" width="18" height="11">
<path d="M76.9645 86.6046L82.4807 86.5293C83.9646 86.509 85.4126 87.0812 86.5062 88.1201C87.5998 89.1589 88.2494 90.5793 88.3121 92.0687L88.3712 93.4727C88.4026 94.2174 88.1379 94.9356 87.6354 95.4694C87.1329 96.0031 86.4338 96.3087 85.6919 96.3188L75.9794 96.4515C75.4284 96.4591 74.8781 96.3576 74.3601 96.1529C73.8421 95.9481 73.3664 95.6442 72.9603 95.2584C72.5542 94.8727 72.2255 94.4126 71.9932 93.9044C71.7608 93.3963 71.6292 92.8501 71.6059 92.297C71.5432 90.8075 72.0725 89.3711 73.0775 88.3036C74.0824 87.236 75.4806 86.6249 76.9645 86.6046Z" fill="white"/>
</mask>
<g mask="url(#mask1_31_32)">
<path d="M85.181 89.9826C85.0846 87.694 83.1581 85.8639 80.878 85.8951C78.5979 85.9262 76.8275 87.8068 76.9239 90.0954L77.0374 92.7915C77.1337 95.0802 79.0602 96.9102 81.3403 96.8791C83.6205 96.8479 85.3908 94.9673 85.2945 92.6787L85.181 89.9826Z" fill="url(#paint9_linear_31_32)"/>
<ellipse cx="0.95613" cy="1.60228" rx="0.95613" ry="1.60228" transform="matrix(0.977893 0.209104 -0.206726 0.978399 78.5972 88.2497)" fill="white" fill-opacity="0.25"/>
</g>
</g>
<path d="M238.528 81V51.9091H244.679V64.7358H245.062L255.531 51.9091H262.903L252.108 64.9347L263.031 81H255.673L247.705 69.0398L244.679 72.733V81H238.528ZM275.135 81.4261C272.89 81.4261 270.958 80.9716 269.339 80.0625C267.729 79.1439 266.489 77.8466 265.617 76.1705C264.746 74.4848 264.311 72.4915 264.311 70.1903C264.311 67.946 264.746 65.9763 265.617 64.2812C266.489 62.5862 267.715 61.2652 269.296 60.3182C270.887 59.3712 272.753 58.8977 274.893 58.8977C276.332 58.8977 277.672 59.1297 278.913 59.5938C280.163 60.0483 281.252 60.7348 282.18 61.6534C283.117 62.572 283.847 63.7273 284.367 65.1193C284.888 66.5019 285.149 68.1212 285.149 69.9773V71.6392H266.725V67.8892H279.453C279.453 67.018 279.263 66.2462 278.885 65.5739C278.506 64.9015 277.98 64.3759 277.308 63.9972C276.645 63.6089 275.873 63.4148 274.992 63.4148C274.074 63.4148 273.26 63.6278 272.549 64.054C271.849 64.4706 271.299 65.0341 270.902 65.7443C270.504 66.4451 270.3 67.2263 270.291 68.0881V71.6534C270.291 72.733 270.49 73.6657 270.887 74.4517C271.295 75.2377 271.867 75.8438 272.606 76.2699C273.345 76.696 274.221 76.9091 275.234 76.9091C275.906 76.9091 276.522 76.8144 277.081 76.625C277.639 76.4356 278.117 76.1515 278.515 75.7727C278.913 75.3939 279.216 74.9299 279.424 74.3807L285.021 74.75C284.737 76.0947 284.154 77.2689 283.274 78.2727C282.403 79.267 281.276 80.0436 279.893 80.6023C278.52 81.1515 276.934 81.4261 275.135 81.4261ZM309.653 59.1818L302.025 81H295.207L287.579 59.1818H293.971L298.502 74.7926H298.729L303.246 59.1818H309.653ZM313.549 81V59.1818H319.6V81H313.549ZM316.589 56.3693C315.689 56.3693 314.918 56.071 314.274 55.4744C313.639 54.8684 313.322 54.1439 313.322 53.3011C313.322 52.4678 313.639 51.7528 314.274 51.1562C314.918 50.5502 315.689 50.2472 316.589 50.2472C317.489 50.2472 318.256 50.5502 318.89 51.1562C319.534 51.7528 319.856 52.4678 319.856 53.3011C319.856 54.1439 319.534 54.8684 318.89 55.4744C318.256 56.071 317.489 56.3693 316.589 56.3693ZM331.299 68.3864V81H325.248V59.1818H331.015V63.0312H331.27C331.753 61.7623 332.563 60.7585 333.699 60.0199C334.836 59.2718 336.213 58.8977 337.833 58.8977C339.348 58.8977 340.669 59.2292 341.796 59.892C342.923 60.5549 343.799 61.5019 344.424 62.733C345.049 63.9545 345.361 65.4129 345.361 67.108V81H339.31V68.1875C339.32 66.8523 338.979 65.8106 338.287 65.0625C337.596 64.3049 336.644 63.9261 335.432 63.9261C334.618 63.9261 333.898 64.1013 333.273 64.4517C332.658 64.8021 332.175 65.3134 331.824 65.9858C331.483 66.6487 331.308 67.4489 331.299 68.3864ZM254.31 95.2756C254.196 94.1297 253.708 93.2396 252.847 92.6051C251.985 91.9706 250.815 91.6534 249.338 91.6534C248.334 91.6534 247.487 91.7955 246.795 92.0795C246.104 92.3542 245.574 92.7377 245.205 93.2301C244.845 93.7225 244.665 94.2812 244.665 94.9062C244.646 95.4271 244.755 95.8816 244.991 96.2699C245.238 96.6581 245.574 96.9943 246 97.2784C246.426 97.553 246.919 97.7945 247.477 98.0028C248.036 98.2017 248.633 98.3722 249.267 98.5142L251.881 99.1392C253.15 99.4233 254.314 99.8021 255.375 100.276C256.436 100.749 257.354 101.331 258.131 102.023C258.907 102.714 259.509 103.528 259.935 104.466C260.37 105.403 260.593 106.478 260.602 107.69C260.593 109.471 260.138 111.014 259.239 112.321C258.348 113.618 257.061 114.627 255.375 115.347C253.699 116.057 251.677 116.412 249.31 116.412C246.961 116.412 244.916 116.052 243.173 115.332C241.44 114.613 240.086 113.547 239.111 112.136C238.145 110.716 237.638 108.959 237.591 106.866H243.543C243.609 107.842 243.888 108.656 244.381 109.31C244.883 109.954 245.55 110.441 246.384 110.773C247.226 111.095 248.178 111.256 249.239 111.256C250.28 111.256 251.185 111.104 251.952 110.801C252.728 110.498 253.33 110.077 253.756 109.537C254.182 108.997 254.395 108.377 254.395 107.676C254.395 107.023 254.201 106.473 253.812 106.028C253.434 105.583 252.875 105.205 252.136 104.892C251.407 104.58 250.512 104.295 249.452 104.04L246.284 103.244C243.831 102.648 241.895 101.715 240.474 100.446C239.054 99.1771 238.348 97.4678 238.358 95.3182C238.348 93.5568 238.817 92.018 239.764 90.7017C240.721 89.3854 242.032 88.358 243.699 87.6193C245.366 86.8807 247.259 86.5114 249.381 86.5114C251.54 86.5114 253.424 86.8807 255.034 87.6193C256.653 88.358 257.913 89.3854 258.812 90.7017C259.712 92.018 260.176 93.5426 260.205 95.2756H254.31ZM277.031 94.1818V98.7273H263.892V94.1818H277.031ZM266.875 88.9545H272.926V109.295C272.926 109.854 273.011 110.29 273.181 110.602C273.352 110.905 273.589 111.118 273.892 111.241C274.204 111.365 274.564 111.426 274.971 111.426C275.255 111.426 275.539 111.402 275.823 111.355C276.108 111.298 276.325 111.256 276.477 111.227L277.429 115.73C277.126 115.825 276.699 115.934 276.15 116.057C275.601 116.189 274.933 116.27 274.147 116.298C272.689 116.355 271.411 116.161 270.312 115.716C269.223 115.271 268.376 114.58 267.769 113.642C267.163 112.705 266.865 111.521 266.875 110.091V88.9545ZM291.481 116.426C289.237 116.426 287.305 115.972 285.686 115.062C284.076 114.144 282.836 112.847 281.964 111.17C281.093 109.485 280.658 107.491 280.658 105.19C280.658 102.946 281.093 100.976 281.964 99.2812C282.836 97.5862 284.062 96.2652 285.643 95.3182C287.234 94.3712 289.1 93.8977 291.24 93.8977C292.679 93.8977 294.019 94.1297 295.26 94.5938C296.51 95.0483 297.599 95.7348 298.527 96.6534C299.464 97.572 300.194 98.7273 300.714 100.119C301.235 101.502 301.496 103.121 301.496 104.977V106.639H283.072V102.889H295.8C295.8 102.018 295.61 101.246 295.231 100.574C294.853 99.9015 294.327 99.3759 293.655 98.9972C292.992 98.6089 292.22 98.4148 291.339 98.4148C290.421 98.4148 289.606 98.6278 288.896 99.054C288.195 99.4706 287.646 100.034 287.248 100.744C286.851 101.445 286.647 102.226 286.638 103.088V106.653C286.638 107.733 286.837 108.666 287.234 109.452C287.641 110.238 288.214 110.844 288.953 111.27C289.692 111.696 290.568 111.909 291.581 111.909C292.253 111.909 292.869 111.814 293.427 111.625C293.986 111.436 294.464 111.152 294.862 110.773C295.26 110.394 295.563 109.93 295.771 109.381L301.368 109.75C301.084 111.095 300.501 112.269 299.621 113.273C298.749 114.267 297.622 115.044 296.24 115.602C294.867 116.152 293.281 116.426 291.481 116.426ZM317.977 94.1818V98.7273H304.512V94.1818H317.977ZM307.594 116V92.6051C307.594 91.0237 307.902 89.7121 308.517 88.6705C309.142 87.6288 309.994 86.8475 311.074 86.3267C312.154 85.8059 313.38 85.5455 314.753 85.5455C315.681 85.5455 316.529 85.6165 317.296 85.7585C318.072 85.9006 318.65 86.0284 319.029 86.142L317.949 90.6875C317.712 90.6117 317.419 90.5407 317.068 90.4744C316.727 90.4081 316.377 90.375 316.017 90.375C315.127 90.375 314.507 90.5833 314.156 91C313.806 91.4072 313.631 91.9801 313.631 92.7188V116H307.594ZM327.914 116.412C326.522 116.412 325.282 116.17 324.193 115.688C323.104 115.195 322.242 114.471 321.608 113.514C320.983 112.548 320.67 111.346 320.67 109.906C320.67 108.694 320.893 107.676 321.338 106.852C321.783 106.028 322.389 105.366 323.156 104.864C323.923 104.362 324.794 103.983 325.77 103.727C326.754 103.472 327.787 103.292 328.866 103.188C330.135 103.055 331.158 102.932 331.934 102.818C332.711 102.695 333.274 102.515 333.625 102.278C333.975 102.042 334.15 101.691 334.15 101.227V101.142C334.15 100.242 333.866 99.5464 333.298 99.054C332.739 98.5616 331.944 98.3153 330.912 98.3153C329.823 98.3153 328.956 98.5568 328.312 99.0398C327.668 99.5133 327.242 100.11 327.034 100.83L321.437 100.375C321.721 99.0492 322.28 97.9034 323.113 96.9375C323.947 95.9621 325.021 95.214 326.338 94.6932C327.664 94.1629 329.198 93.8977 330.94 93.8977C332.152 93.8977 333.312 94.0398 334.42 94.3239C335.538 94.608 336.527 95.0483 337.389 95.6449C338.26 96.2415 338.947 97.0085 339.449 97.946C339.95 98.8741 340.201 99.9867 340.201 101.284V116H334.463V112.974H334.292C333.942 113.656 333.473 114.258 332.886 114.778C332.299 115.29 331.593 115.692 330.77 115.986C329.946 116.27 328.994 116.412 327.914 116.412ZM329.647 112.236C330.538 112.236 331.324 112.061 332.005 111.71C332.687 111.35 333.222 110.867 333.611 110.261C333.999 109.655 334.193 108.969 334.193 108.202V105.886C334.004 106.009 333.743 106.123 333.412 106.227C333.09 106.322 332.725 106.412 332.318 106.497C331.911 106.573 331.504 106.644 331.096 106.71C330.689 106.767 330.32 106.819 329.988 106.866C329.278 106.971 328.658 107.136 328.128 107.364C327.597 107.591 327.185 107.899 326.892 108.287C326.598 108.666 326.451 109.139 326.451 109.707C326.451 110.531 326.75 111.161 327.346 111.597C327.952 112.023 328.719 112.236 329.647 112.236ZM351.747 103.386V116H345.696V94.1818H351.463V98.0312H351.719C352.202 96.7623 353.011 95.7585 354.148 95.0199C355.284 94.2718 356.662 93.8977 358.281 93.8977C359.796 93.8977 361.117 94.2292 362.244 94.892C363.371 95.5549 364.247 96.5019 364.872 97.733C365.497 98.9545 365.81 100.413 365.81 102.108V116H359.759V103.188C359.768 101.852 359.427 100.811 358.736 100.062C358.045 99.3049 357.093 98.9261 355.881 98.9261C355.066 98.9261 354.347 99.1013 353.722 99.4517C353.106 99.8021 352.623 100.313 352.273 100.986C351.932 101.649 351.757 102.449 351.747 103.386ZM381.322 116.426C379.078 116.426 377.146 115.972 375.527 115.062C373.917 114.144 372.676 112.847 371.805 111.17C370.934 109.485 370.498 107.491 370.498 105.19C370.498 102.946 370.934 100.976 371.805 99.2812C372.676 97.5862 373.903 96.2652 375.484 95.3182C377.075 94.3712 378.94 93.8977 381.081 93.8977C382.52 93.8977 383.86 94.1297 385.1 94.5938C386.35 95.0483 387.439 95.7348 388.367 96.6534C389.305 97.572 390.034 98.7273 390.555 100.119C391.076 101.502 391.336 103.121 391.336 104.977V106.639H372.913V102.889H385.64C385.64 102.018 385.451 101.246 385.072 100.574C384.693 99.9015 384.168 99.3759 383.495 98.9972C382.832 98.6089 382.061 98.4148 381.18 98.4148C380.261 98.4148 379.447 98.6278 378.737 99.054C378.036 99.4706 377.487 100.034 377.089 100.744C376.691 101.445 376.488 102.226 376.478 103.088V106.653C376.478 107.733 376.677 108.666 377.075 109.452C377.482 110.238 378.055 110.844 378.794 111.27C379.532 111.696 380.408 111.909 381.421 111.909C382.094 111.909 382.709 111.814 383.268 111.625C383.827 111.436 384.305 111.152 384.703 110.773C385.1 110.394 385.403 109.93 385.612 109.381L391.208 109.75C390.924 111.095 390.342 112.269 389.461 113.273C388.59 114.267 387.463 115.044 386.081 115.602C384.707 116.152 383.121 116.426 381.322 116.426ZM402.136 86.9091V116H396.085V86.9091H402.136ZM413.835 86.9091V116H407.784V86.9091H413.835ZM419.482 116V94.1818H425.533V116H419.482ZM422.522 91.3693C421.622 91.3693 420.85 91.071 420.206 90.4744C419.572 89.8684 419.255 89.1439 419.255 88.3011C419.255 87.4678 419.572 86.7528 420.206 86.1562C420.85 85.5502 421.622 85.2472 422.522 85.2472C423.421 85.2472 424.188 85.5502 424.823 86.1562C425.467 86.7528 425.789 87.4678 425.789 88.3011C425.789 89.1439 425.467 89.8684 424.823 90.4744C424.188 91.071 423.421 91.3693 422.522 91.3693Z" fill="white"/>
<path d="M246.182 163H238.295V139.727H246.341C248.652 139.727 250.636 140.193 252.295 141.125C253.962 142.049 255.242 143.379 256.136 145.114C257.03 146.848 257.477 148.924 257.477 151.341C257.477 153.765 257.027 155.848 256.125 157.591C255.231 159.333 253.939 160.67 252.25 161.602C250.568 162.534 248.545 163 246.182 163ZM242.511 159.352H245.977C247.598 159.352 248.951 159.057 250.034 158.466C251.117 157.867 251.932 156.977 252.477 155.795C253.023 154.606 253.295 153.121 253.295 151.341C253.295 149.561 253.023 148.083 252.477 146.909C251.932 145.727 251.125 144.845 250.057 144.261C248.996 143.67 247.678 143.375 246.102 143.375H242.511V159.352ZM271.588 163.341C269.838 163.341 268.327 162.977 267.054 162.25C265.789 161.515 264.816 160.477 264.134 159.136C263.452 157.788 263.111 156.201 263.111 154.375C263.111 152.58 263.452 151.004 264.134 149.648C264.823 148.284 265.785 147.223 267.02 146.466C268.255 145.701 269.706 145.318 271.372 145.318C272.448 145.318 273.463 145.492 274.418 145.841C275.38 146.182 276.229 146.712 276.963 147.432C277.706 148.152 278.289 149.068 278.713 150.182C279.138 151.288 279.35 152.606 279.35 154.136V155.398H265.043V152.625H275.407C275.399 151.837 275.229 151.136 274.895 150.523C274.562 149.902 274.096 149.413 273.497 149.057C272.907 148.701 272.217 148.523 271.429 148.523C270.588 148.523 269.85 148.727 269.213 149.136C268.577 149.538 268.081 150.068 267.725 150.727C267.376 151.379 267.198 152.095 267.191 152.875V155.295C267.191 156.311 267.376 157.182 267.747 157.909C268.119 158.629 268.638 159.182 269.304 159.568C269.971 159.947 270.751 160.136 271.645 160.136C272.244 160.136 272.785 160.053 273.27 159.886C273.755 159.712 274.176 159.458 274.532 159.125C274.888 158.792 275.157 158.379 275.338 157.886L279.179 158.318C278.937 159.333 278.475 160.22 277.793 160.977C277.119 161.727 276.255 162.311 275.202 162.727C274.149 163.136 272.944 163.341 271.588 163.341ZM269.679 143.25L272.225 138.057H276.247L272.759 143.25H269.679ZM300.481 145.545L294.265 163H289.719L283.504 145.545H287.89L291.901 158.511H292.083L296.106 145.545H300.481ZM313.021 163.341C311.271 163.341 309.76 162.977 308.487 162.25C307.222 161.515 306.248 160.477 305.566 159.136C304.885 157.788 304.544 156.201 304.544 154.375C304.544 152.58 304.885 151.004 305.566 149.648C306.256 148.284 307.218 147.223 308.453 146.466C309.688 145.701 311.138 145.318 312.805 145.318C313.881 145.318 314.896 145.492 315.85 145.841C316.813 146.182 317.661 146.712 318.396 147.432C319.138 148.152 319.722 149.068 320.146 150.182C320.57 151.288 320.782 152.606 320.782 154.136V155.398H306.475V152.625H316.839C316.832 151.837 316.661 151.136 316.328 150.523C315.994 149.902 315.528 149.413 314.93 149.057C314.339 148.701 313.65 148.523 312.862 148.523C312.021 148.523 311.282 148.727 310.646 149.136C310.01 149.538 309.513 150.068 309.157 150.727C308.809 151.379 308.631 152.095 308.623 152.875V155.295C308.623 156.311 308.809 157.182 309.18 157.909C309.551 158.629 310.07 159.182 310.737 159.568C311.403 159.947 312.184 160.136 313.078 160.136C313.676 160.136 314.218 160.053 314.703 159.886C315.188 159.712 315.608 159.458 315.964 159.125C316.32 158.792 316.589 158.379 316.771 157.886L320.612 158.318C320.369 159.333 319.907 160.22 319.225 160.977C318.551 161.727 317.688 162.311 316.635 162.727C315.582 163.136 314.377 163.341 313.021 163.341ZM330.936 139.727V163H326.822V139.727H330.936ZM345.34 163.341C343.635 163.341 342.158 162.966 340.908 162.216C339.658 161.466 338.688 160.417 337.999 159.068C337.317 157.72 336.976 156.144 336.976 154.341C336.976 152.538 337.317 150.958 337.999 149.602C338.688 148.246 339.658 147.193 340.908 146.443C342.158 145.693 343.635 145.318 345.34 145.318C347.044 145.318 348.522 145.693 349.772 146.443C351.022 147.193 351.988 148.246 352.669 149.602C353.359 150.958 353.703 152.538 353.703 154.341C353.703 156.144 353.359 157.72 352.669 159.068C351.988 160.417 351.022 161.466 349.772 162.216C348.522 162.966 347.044 163.341 345.34 163.341ZM345.363 160.045C346.287 160.045 347.059 159.792 347.681 159.284C348.302 158.769 348.764 158.08 349.067 157.216C349.378 156.352 349.533 155.39 349.533 154.33C349.533 153.261 349.378 152.295 349.067 151.432C348.764 150.561 348.302 149.867 347.681 149.352C347.059 148.837 346.287 148.58 345.363 148.58C344.416 148.58 343.628 148.837 342.999 149.352C342.378 149.867 341.912 150.561 341.601 151.432C341.298 152.295 341.147 153.261 341.147 154.33C341.147 155.39 341.298 156.352 341.601 157.216C341.912 158.08 342.378 158.769 342.999 159.284C343.628 159.792 344.416 160.045 345.363 160.045ZM359.755 169.545V145.545H363.8V148.432H364.039C364.251 148.008 364.55 147.557 364.937 147.08C365.323 146.595 365.846 146.182 366.505 145.841C367.164 145.492 368.005 145.318 369.028 145.318C370.376 145.318 371.592 145.663 372.675 146.352C373.766 147.034 374.63 148.045 375.266 149.386C375.91 150.72 376.232 152.356 376.232 154.295C376.232 156.212 375.918 157.841 375.289 159.182C374.66 160.523 373.804 161.545 372.721 162.25C371.637 162.955 370.41 163.307 369.039 163.307C368.039 163.307 367.209 163.14 366.55 162.807C365.891 162.473 365.361 162.072 364.959 161.602C364.565 161.125 364.259 160.674 364.039 160.25H363.869V169.545H359.755ZM363.789 154.273C363.789 155.402 363.948 156.39 364.266 157.239C364.592 158.087 365.058 158.75 365.664 159.227C366.278 159.697 367.02 159.932 367.891 159.932C368.8 159.932 369.562 159.689 370.175 159.205C370.789 158.712 371.251 158.042 371.562 157.193C371.88 156.337 372.039 155.364 372.039 154.273C372.039 153.189 371.884 152.227 371.573 151.386C371.262 150.545 370.8 149.886 370.187 149.409C369.573 148.932 368.808 148.693 367.891 148.693C367.012 148.693 366.266 148.924 365.653 149.386C365.039 149.848 364.573 150.496 364.255 151.33C363.944 152.163 363.789 153.144 363.789 154.273ZM382.315 169.545V145.545H386.36V148.432H386.599C386.811 148.008 387.11 147.557 387.497 147.08C387.883 146.595 388.406 146.182 389.065 145.841C389.724 145.492 390.565 145.318 391.588 145.318C392.936 145.318 394.152 145.663 395.235 146.352C396.326 147.034 397.19 148.045 397.826 149.386C398.47 150.72 398.792 152.356 398.792 154.295C398.792 156.212 398.478 157.841 397.849 159.182C397.22 160.523 396.364 161.545 395.281 162.25C394.197 162.955 392.97 163.307 391.599 163.307C390.599 163.307 389.769 163.14 389.11 162.807C388.451 162.473 387.921 162.072 387.519 161.602C387.125 161.125 386.819 160.674 386.599 160.25H386.429V169.545H382.315ZM386.349 154.273C386.349 155.402 386.508 156.39 386.826 157.239C387.152 158.087 387.618 158.75 388.224 159.227C388.838 159.697 389.58 159.932 390.451 159.932C391.36 159.932 392.122 159.689 392.735 159.205C393.349 158.712 393.811 158.042 394.122 157.193C394.44 156.337 394.599 155.364 394.599 154.273C394.599 153.189 394.444 152.227 394.133 151.386C393.822 150.545 393.36 149.886 392.747 149.409C392.133 148.932 391.368 148.693 390.451 148.693C389.572 148.693 388.826 148.924 388.213 149.386C387.599 149.848 387.133 150.496 386.815 151.33C386.504 152.163 386.349 153.144 386.349 154.273ZM412.602 163.341C410.852 163.341 409.341 162.977 408.068 162.25C406.803 161.515 405.829 160.477 405.148 159.136C404.466 157.788 404.125 156.201 404.125 154.375C404.125 152.58 404.466 151.004 405.148 149.648C405.837 148.284 406.799 147.223 408.034 146.466C409.269 145.701 410.72 145.318 412.386 145.318C413.462 145.318 414.477 145.492 415.432 145.841C416.394 146.182 417.242 146.712 417.977 147.432C418.72 148.152 419.303 149.068 419.727 150.182C420.151 151.288 420.364 152.606 420.364 154.136V155.398H406.057V152.625H416.42C416.413 151.837 416.242 151.136 415.909 150.523C415.576 149.902 415.11 149.413 414.511 149.057C413.92 148.701 413.231 148.523 412.443 148.523C411.602 148.523 410.864 148.727 410.227 149.136C409.591 149.538 409.095 150.068 408.739 150.727C408.39 151.379 408.212 152.095 408.204 152.875V155.295C408.204 156.311 408.39 157.182 408.761 157.909C409.132 158.629 409.651 159.182 410.318 159.568C410.985 159.947 411.765 160.136 412.659 160.136C413.257 160.136 413.799 160.053 414.284 159.886C414.769 159.712 415.189 159.458 415.545 159.125C415.901 158.792 416.17 158.379 416.352 157.886L420.193 158.318C419.951 159.333 419.489 160.22 418.807 160.977C418.132 161.727 417.269 162.311 416.216 162.727C415.163 163.136 413.958 163.341 412.602 163.341ZM437.529 155.659V145.545H441.642V163H437.654V159.898H437.472C437.078 160.875 436.43 161.674 435.529 162.295C434.635 162.917 433.532 163.227 432.222 163.227C431.078 163.227 430.067 162.973 429.188 162.466C428.317 161.951 427.635 161.205 427.142 160.227C426.65 159.242 426.404 158.053 426.404 156.659V145.545H430.517V156.023C430.517 157.129 430.82 158.008 431.426 158.659C432.032 159.311 432.828 159.636 433.813 159.636C434.419 159.636 435.006 159.489 435.574 159.193C436.142 158.898 436.608 158.458 436.972 157.875C437.343 157.284 437.529 156.545 437.529 155.659ZM448.432 163V145.545H452.421V148.455H452.603C452.921 147.447 453.466 146.67 454.239 146.125C455.02 145.572 455.91 145.295 456.91 145.295C457.137 145.295 457.391 145.307 457.671 145.33C457.959 145.345 458.198 145.371 458.387 145.409V149.193C458.213 149.133 457.936 149.08 457.557 149.034C457.186 148.981 456.826 148.955 456.478 148.955C455.728 148.955 455.054 149.117 454.455 149.443C453.864 149.761 453.398 150.205 453.057 150.773C452.716 151.341 452.546 151.996 452.546 152.739V163H448.432ZM477.78 163L472.848 145.545H477.041L480.109 157.818H480.268L483.405 145.545H487.552L490.689 157.75H490.859L493.882 145.545H498.086L493.143 163H488.859L485.586 151.205H485.348L482.075 163H477.78ZM510.746 163.341C508.996 163.341 507.485 162.977 506.212 162.25C504.947 161.515 503.973 160.477 503.291 159.136C502.61 157.788 502.269 156.201 502.269 154.375C502.269 152.58 502.61 151.004 503.291 149.648C503.981 148.284 504.943 147.223 506.178 146.466C507.413 145.701 508.863 145.318 510.53 145.318C511.606 145.318 512.621 145.492 513.575 145.841C514.538 146.182 515.386 146.712 516.121 147.432C516.863 148.152 517.447 149.068 517.871 150.182C518.295 151.288 518.507 152.606 518.507 154.136V155.398H504.2V152.625H514.564C514.557 151.837 514.386 151.136 514.053 150.523C513.719 149.902 513.253 149.413 512.655 149.057C512.064 148.701 511.375 148.523 510.587 148.523C509.746 148.523 509.007 148.727 508.371 149.136C507.735 149.538 507.238 150.068 506.882 150.727C506.534 151.379 506.356 152.095 506.348 152.875V155.295C506.348 156.311 506.534 157.182 506.905 157.909C507.276 158.629 507.795 159.182 508.462 159.568C509.128 159.947 509.909 160.136 510.803 160.136C511.401 160.136 511.943 160.053 512.428 159.886C512.913 159.712 513.333 159.458 513.689 159.125C514.045 158.792 514.314 158.379 514.496 157.886L518.337 158.318C518.094 159.333 517.632 160.22 516.95 160.977C516.276 161.727 515.413 162.311 514.36 162.727C513.307 163.136 512.102 163.341 510.746 163.341ZM524.729 163V139.727H528.843V148.432H529.013C529.225 148.008 529.525 147.557 529.911 147.08C530.297 146.595 530.82 146.182 531.479 145.841C532.138 145.492 532.979 145.318 534.002 145.318C535.35 145.318 536.566 145.663 537.65 146.352C538.741 147.034 539.604 148.045 540.241 149.386C540.885 150.72 541.206 152.356 541.206 154.295C541.206 156.212 540.892 157.841 540.263 159.182C539.635 160.523 538.778 161.545 537.695 162.25C536.612 162.955 535.385 163.307 534.013 163.307C533.013 163.307 532.184 163.14 531.525 162.807C530.866 162.473 530.335 162.072 529.934 161.602C529.54 161.125 529.233 160.674 529.013 160.25H528.775V163H524.729ZM528.763 154.273C528.763 155.402 528.922 156.39 529.241 157.239C529.566 158.087 530.032 158.75 530.638 159.227C531.252 159.697 531.994 159.932 532.866 159.932C533.775 159.932 534.536 159.689 535.15 159.205C535.763 158.712 536.225 158.042 536.536 157.193C536.854 156.337 537.013 155.364 537.013 154.273C537.013 153.189 536.858 152.227 536.547 151.386C536.237 150.545 535.775 149.886 535.161 149.409C534.547 148.932 533.782 148.693 532.866 148.693C531.987 148.693 531.241 148.924 530.627 149.386C530.013 149.848 529.547 150.496 529.229 151.33C528.919 152.163 528.763 153.144 528.763 154.273Z" fill="#7DA7C0"/>
<path d="M694 200C694 153.608 731.608 116 778 116H1024C1031.54 116 1035.31 116 1037.66 118.343C1040 120.686 1040 124.458 1040 132V200H694Z" fill="white" fill-opacity="0.1"/>
<path d="M778 116.5H1024C1027.79 116.5 1030.57 116.501 1032.71 116.788C1034.83 117.074 1036.24 117.633 1037.3 118.696C1038.37 119.759 1038.93 121.165 1039.21 123.288C1039.5 125.426 1039.5 128.215 1039.5 132V199.5H694.503C694.772 153.614 732.051 116.5 778 116.5Z" stroke="white" stroke-opacity="0.2"/>
<path d="M787.295 175V151.727H796.023C797.811 151.727 799.311 152.061 800.523 152.727C801.742 153.394 802.663 154.311 803.284 155.477C803.913 156.636 804.227 157.955 804.227 159.432C804.227 160.924 803.913 162.25 803.284 163.409C802.655 164.568 801.727 165.481 800.5 166.148C799.273 166.807 797.761 167.136 795.966 167.136H790.182V163.67H795.398C796.443 163.67 797.299 163.489 797.966 163.125C798.633 162.761 799.125 162.261 799.443 161.625C799.769 160.989 799.932 160.258 799.932 159.432C799.932 158.606 799.769 157.879 799.443 157.25C799.125 156.621 798.629 156.133 797.955 155.784C797.288 155.428 796.428 155.25 795.375 155.25H791.511V175H787.295ZM808.027 175V157.545H812.016V160.455H812.198C812.516 159.447 813.061 158.67 813.834 158.125C814.615 157.572 815.505 157.295 816.505 157.295C816.732 157.295 816.986 157.307 817.266 157.33C817.554 157.345 817.793 157.371 817.982 157.409V161.193C817.808 161.133 817.531 161.08 817.152 161.034C816.781 160.981 816.421 160.955 816.073 160.955C815.323 160.955 814.649 161.117 814.05 161.443C813.459 161.761 812.993 162.205 812.652 162.773C812.311 163.341 812.141 163.996 812.141 164.739V175H808.027ZM827.93 175.341C826.225 175.341 824.748 174.966 823.498 174.216C822.248 173.466 821.278 172.417 820.589 171.068C819.907 169.72 819.566 168.144 819.566 166.341C819.566 164.538 819.907 162.958 820.589 161.602C821.278 160.246 822.248 159.193 823.498 158.443C824.748 157.693 826.225 157.318 827.93 157.318C829.634 157.318 831.112 157.693 832.362 158.443C833.612 159.193 834.578 160.246 835.259 161.602C835.949 162.958 836.293 164.538 836.293 166.341C836.293 168.144 835.949 169.72 835.259 171.068C834.578 172.417 833.612 173.466 832.362 174.216C831.112 174.966 829.634 175.341 827.93 175.341ZM827.952 172.045C828.877 172.045 829.649 171.792 830.271 171.284C830.892 170.769 831.354 170.08 831.657 169.216C831.968 168.352 832.123 167.39 832.123 166.33C832.123 165.261 831.968 164.295 831.657 163.432C831.354 162.561 830.892 161.867 830.271 161.352C829.649 160.837 828.877 160.58 827.952 160.58C827.006 160.58 826.218 160.837 825.589 161.352C824.968 161.867 824.502 162.561 824.191 163.432C823.888 164.295 823.737 165.261 823.737 166.33C823.737 167.39 823.888 168.352 824.191 169.216C824.502 170.08 824.968 170.769 825.589 171.284C826.218 171.792 827.006 172.045 827.952 172.045ZM848.946 157.545V160.727H838.628V157.545H848.946ZM841.207 175V155.898C841.207 154.723 841.45 153.746 841.934 152.966C842.427 152.186 843.086 151.602 843.912 151.216C844.737 150.83 845.654 150.636 846.662 150.636C847.374 150.636 848.006 150.693 848.559 150.807C849.112 150.92 849.522 151.023 849.787 151.114L848.969 154.295C848.794 154.242 848.575 154.189 848.309 154.136C848.044 154.076 847.749 154.045 847.423 154.045C846.658 154.045 846.116 154.231 845.798 154.602C845.487 154.966 845.332 155.489 845.332 156.17V175H841.207ZM852.487 175V157.545H856.601V175H852.487ZM854.556 155.068C853.904 155.068 853.343 154.852 852.874 154.42C852.404 153.981 852.169 153.455 852.169 152.841C852.169 152.22 852.404 151.693 852.874 151.261C853.343 150.822 853.904 150.602 854.556 150.602C855.215 150.602 855.775 150.822 856.237 151.261C856.707 151.693 856.942 152.22 856.942 152.841C856.942 153.455 856.707 153.981 856.237 154.42C855.775 154.852 855.215 155.068 854.556 155.068ZM865.265 151.727V175H861.151V151.727H865.265ZM877.542 175.341C875.792 175.341 874.281 174.977 873.008 174.25C871.743 173.515 870.769 172.477 870.088 171.136C869.406 169.788 869.065 168.201 869.065 166.375C869.065 164.58 869.406 163.004 870.088 161.648C870.777 160.284 871.739 159.223 872.974 158.466C874.209 157.701 875.66 157.318 877.326 157.318C878.402 157.318 879.417 157.492 880.372 157.841C881.334 158.182 882.182 158.712 882.917 159.432C883.66 160.152 884.243 161.068 884.667 162.182C885.091 163.288 885.304 164.606 885.304 166.136V167.398H870.997V164.625H881.36C881.353 163.837 881.182 163.136 880.849 162.523C880.516 161.902 880.05 161.413 879.451 161.057C878.86 160.701 878.171 160.523 877.383 160.523C876.542 160.523 875.804 160.727 875.167 161.136C874.531 161.538 874.035 162.068 873.679 162.727C873.33 163.379 873.152 164.095 873.144 164.875V167.295C873.144 168.311 873.33 169.182 873.701 169.909C874.072 170.629 874.591 171.182 875.258 171.568C875.925 171.947 876.705 172.136 877.599 172.136C878.197 172.136 878.739 172.053 879.224 171.886C879.709 171.712 880.129 171.458 880.485 171.125C880.841 170.792 881.11 170.379 881.292 169.886L885.133 170.318C884.891 171.333 884.429 172.22 883.747 172.977C883.072 173.727 882.209 174.311 881.156 174.727C880.103 175.136 878.898 175.341 877.542 175.341Z" fill="white"/>
</g>
<path d="M999.5 0.5V100C999.5 123.584 999.499 141.222 997.674 154.797C995.851 168.357 992.216 177.788 985.002 185.002C977.788 192.216 968.357 195.851 954.797 197.674C941.222 199.499 923.584 199.5 900 199.5H100C76.4157 199.5 58.7777 199.499 45.2031 197.674C31.6429 195.851 22.212 192.216 14.998 185.002C7.7841 177.788 4.1493 168.357 2.32617 154.797C0.501121 141.222 0.5 123.584 0.5 100V0.5H999.5Z" stroke="white" stroke-opacity="0.2"/>
<defs>
<filter id="filter0_d_31_32" x="-17" y="-14" width="230" height="236" filterUnits="userSpaceOnUse" color-interpolation-filters="sRGB">
<feFlood flood-opacity="0" result="BackgroundImageFix"/>
<feColorMatrix in="SourceAlpha" type="matrix" values="0 0 0 0 0 0 0 0 0 0 0 0 0 0 0 0 0 0 127 0" result="hardAlpha"/>
<feOffset dy="4"/>
<feGaussianBlur stdDeviation="25"/>
<feComposite in2="hardAlpha" operator="out"/>
<feColorMatrix type="matrix" values="0 0 0 0 0.509804 0 0 0 0 0.388235 0 0 0 0 0.313726 0 0 0 0.3 0"/>
<feBlend mode="normal" in2="BackgroundImageFix" result="effect1_dropShadow_31_32"/>
<feBlend mode="normal" in="SourceGraphic" in2="effect1_dropShadow_31_32" result="shape"/>
</filter>
<filter id="filter1_d_31_32" x="84.2925" y="120.013" width="23.5089" height="5.76105" filterUnits="userSpaceOnUse" color-interpolation-filters="sRGB">
<feFlood flood-opacity="0" result="BackgroundImageFix"/>
<feColorMatrix in="SourceAlpha" type="matrix" values="0 0 0 0 0 0 0 0 0 0 0 0 0 0 0 0 0 0 127 0" result="hardAlpha"/>
<feOffset dy="1"/>
<feGaussianBlur stdDeviation="0.5"/>
<feComposite in2="hardAlpha" operator="out"/>
<feColorMatrix type="matrix" values="0 0 0 0 0 0 0 0 0 0 0 0 0 0 0 0 0 0 0.05 0"/>
<feBlend mode="normal" in2="BackgroundImageFix" result="effect1_dropShadow_31_32"/>
<feBlend mode="normal" in="SourceGraphic" in2="effect1_dropShadow_31_32" result="shape"/>
</filter>
<radialGradient id="paint0_radial_31_32" cx="0" cy="0" r="1" gradientUnits="userSpaceOnUse" gradientTransform="translate(9 23) rotate(13.6628) scale(707.006 548.571)">
<stop stop-color="#191919"/>
<stop offset="1" stop-color="#2C2C2C"/>
</radialGradient>
<linearGradient id="paint1_linear_31_32" x1="98" y1="32" x2="98" y2="168" gradientUnits="userSpaceOnUse">
<stop offset="0.254808" stop-color="#624432"/>
<stop offset="1" stop-color="#866754"/>
</linearGradient>
<radialGradient id="paint2_radial_31_32" cx="0" cy="0" r="1" gradientTransform="matrix(28.0391 -96.8022 -93.3606 -27.3676 96.088 130.084)" gradientUnits="userSpaceOnUse">
<stop offset="0.658861" stop-color="#FECEAE"/>
<stop offset="1" stop-color="#987B68"/>
</radialGradient>
<linearGradient id="paint3_linear_31_32" x1="77.2268" y1="75.0732" x2="77.2268" y2="80.6266" gradientUnits="userSpaceOnUse">
<stop offset="0.254808" stop-color="#624432"/>
<stop offset="1" stop-color="#866754"/>
</linearGradient>
<linearGradient id="paint4_linear_31_32" x1="115.251" y1="75.0732" x2="115.251" y2="80.6266" gradientUnits="userSpaceOnUse">
<stop offset="0.254808" stop-color="#624432"/>
<stop offset="1" stop-color="#866754"/>
</linearGradient>
<linearGradient id="paint5_linear_31_32" x1="96.2391" y1="127.728" x2="96.2391" y2="151.837" gradientUnits="userSpaceOnUse">
<stop offset="0.254808" stop-color="#624432"/>
<stop offset="1" stop-color="#866754"/>
</linearGradient>
<linearGradient id="paint6_linear_31_32" x1="85.8739" y1="112.359" x2="86.9274" y2="118.102" gradientUnits="userSpaceOnUse">
<stop offset="0.254808" stop-color="#624432"/>
<stop offset="1" stop-color="#866754"/>
</linearGradient>
<linearGradient id="paint7_linear_31_32" x1="105.836" y1="112.359" x2="104.783" y2="118.102" gradientUnits="userSpaceOnUse">
<stop offset="0.254808" stop-color="#624432"/>
<stop offset="1" stop-color="#866754"/>
</linearGradient>
<linearGradient id="paint8_linear_31_32" x1="112.327" y1="85.8946" x2="112.176" y2="96.8829" gradientUnits="userSpaceOnUse">
<stop stop-color="#3A536C"/>
<stop offset="1" stop-color="#708DA9"/>
</linearGradient>
<linearGradient id="paint9_linear_31_32" x1="80.878" y1="85.8951" x2="81.0281" y2="96.8833" gradientUnits="userSpaceOnUse">
<stop stop-color="#3A536C"/>
<stop offset="1" stop-color="#708DA9"/>
</linearGradient>
<clipPath id="clip0_31_32">
<path d="M0 0H1000V100C1000 147.14 1000 170.711 985.355 185.355C970.711 200 947.14 200 900 200H100C52.8596 200 29.2893 200 14.6447 185.355C0 170.711 0 147.14 0 100V0Z" fill="white"/>
</clipPath>
</defs>
</svg>
