<svg width="1000" height="200" viewBox="0 0 1000 200" fill="none" xmlns="http://www.w3.org/2000/svg">
<path d="M0 32C0 16.9151 0 9.37258 4.68629 4.68629C9.37258 0 16.9151 0 32 0H968C983.085 0 990.627 0 995.314 4.68629C1000 9.37258 1000 16.9151 1000 32V168C1000 183.085 1000 190.627 995.314 195.314C990.627 200 983.085 200 968 200H32C16.9151 200 9.37258 200 4.68629 195.314C0 190.627 0 183.085 0 168V32Z" fill="url(#paint0_radial_31_169)"/>
<path d="M32 0.5H968C975.556 0.5 981.173 0.500855 985.489 1.08105C989.791 1.65939 992.725 2.80528 994.96 5.04004C997.195 7.2748 998.341 10.2092 998.919 14.5107C999.499 18.8266 999.5 24.4437 999.5 32V168C999.5 175.556 999.499 181.173 998.919 185.489C998.341 189.791 997.195 192.725 994.96 194.96C992.725 197.195 989.791 198.341 985.489 198.919C981.173 199.499 975.556 199.5 968 199.5H32C24.4437 199.5 18.8266 199.499 14.5107 198.919C10.2092 198.341 7.2748 197.195 5.04004 194.96C2.80528 192.725 1.65939 189.791 1.08105 185.489C0.500855 181.173 0.5 175.556 0.5 168V32C0.5 24.4437 0.500855 18.8266 1.08105 14.5107C1.65939 10.2092 2.80528 7.2748 5.04004 5.04004C7.2748 2.80528 10.2092 1.65939 14.5107 1.08105C18.8266 0.500855 24.4437 0.5 32 0.5Z" stroke="white" stroke-opacity="0.2"/>
<path d="M259.857 36.7273H265.016L271.925 53.5909H272.198L279.107 36.7273H284.266V60H280.22V44.0114H280.004L273.573 59.9318H270.55L264.118 43.9773H263.902V60H259.857V36.7273ZM298.962 60.3409C297.212 60.3409 295.701 59.9773 294.428 59.25C293.163 58.5152 292.189 57.4773 291.508 56.1364C290.826 54.7879 290.485 53.2008 290.485 51.375C290.485 49.5795 290.826 48.0038 291.508 46.6477C292.197 45.2841 293.159 44.2235 294.394 43.4659C295.629 42.7008 297.08 42.3182 298.746 42.3182C299.822 42.3182 300.837 42.4924 301.792 42.8409C302.754 43.1818 303.602 43.7121 304.337 44.4318C305.08 45.1515 305.663 46.0682 306.087 47.1818C306.511 48.2879 306.724 49.6061 306.724 51.1364V52.3977H292.417V49.625H302.78C302.773 48.8371 302.602 48.1364 302.269 47.5227C301.936 46.9015 301.47 46.4129 300.871 46.0568C300.28 45.7008 299.591 45.5227 298.803 45.5227C297.962 45.5227 297.224 45.7273 296.587 46.1364C295.951 46.5379 295.455 47.0682 295.099 47.7273C294.75 48.3788 294.572 49.0947 294.564 49.875V52.2955C294.564 53.3106 294.75 54.1818 295.121 54.9091C295.492 55.6288 296.011 56.1818 296.678 56.5682C297.345 56.947 298.125 57.1364 299.019 57.1364C299.617 57.1364 300.159 57.053 300.644 56.8864C301.129 56.7121 301.549 56.4583 301.905 56.125C302.261 55.7917 302.53 55.3788 302.712 54.8864L306.553 55.3182C306.311 56.3333 305.849 57.2197 305.167 57.9773C304.492 58.7273 303.629 59.3106 302.576 59.7273C301.523 60.1364 300.318 60.3409 298.962 60.3409ZM326.559 47.1591L322.809 47.5682C322.703 47.1894 322.517 46.8333 322.252 46.5C321.995 46.1667 321.646 45.8977 321.207 45.6932C320.767 45.4886 320.23 45.3864 319.593 45.3864C318.737 45.3864 318.017 45.572 317.434 45.9432C316.858 46.3144 316.574 46.7955 316.582 47.3864C316.574 47.8939 316.76 48.3068 317.139 48.625C317.525 48.9432 318.161 49.2045 319.048 49.4091L322.025 50.0455C323.677 50.4015 324.904 50.9659 325.707 51.7386C326.517 52.5114 326.927 53.5227 326.934 54.7727C326.927 55.8712 326.605 56.8409 325.968 57.6818C325.339 58.5152 324.464 59.1667 323.343 59.6364C322.222 60.1061 320.934 60.3409 319.48 60.3409C317.343 60.3409 315.623 59.8939 314.32 59C313.017 58.0985 312.241 56.8447 311.991 55.2386L316.002 54.8523C316.184 55.6402 316.57 56.2348 317.161 56.6364C317.752 57.0379 318.521 57.2386 319.468 57.2386C320.445 57.2386 321.23 57.0379 321.82 56.6364C322.419 56.2348 322.718 55.7386 322.718 55.1477C322.718 54.6477 322.525 54.2348 322.139 53.9091C321.76 53.5833 321.169 53.3333 320.366 53.1591L317.389 52.5341C315.714 52.1856 314.476 51.5985 313.673 50.7727C312.87 49.9394 312.472 48.8864 312.48 47.6136C312.472 46.5379 312.764 45.6061 313.355 44.8182C313.953 44.0227 314.783 43.4091 315.843 42.9773C316.911 42.5379 318.142 42.3182 319.536 42.3182C321.582 42.3182 323.192 42.7538 324.366 43.625C325.548 44.4962 326.279 45.6742 326.559 47.1591ZM356.213 43.125C356.107 42.1326 355.66 41.3598 354.872 40.8068C354.092 40.2538 353.077 39.9773 351.827 39.9773C350.948 39.9773 350.194 40.1098 349.565 40.375C348.937 40.6402 348.456 41 348.122 41.4545C347.789 41.9091 347.618 42.428 347.611 43.0114C347.611 43.4962 347.721 43.9167 347.94 44.2727C348.168 44.6288 348.475 44.9318 348.861 45.1818C349.247 45.4242 349.675 45.6288 350.145 45.7955C350.615 45.9621 351.088 46.1023 351.565 46.2159L353.747 46.7614C354.626 46.9659 355.471 47.2424 356.281 47.5909C357.1 47.9394 357.831 48.3788 358.475 48.9091C359.126 49.4394 359.641 50.0795 360.02 50.8295C360.399 51.5795 360.588 52.4583 360.588 53.4659C360.588 54.8295 360.24 56.0303 359.543 57.0682C358.846 58.0985 357.838 58.9053 356.52 59.4886C355.209 60.0644 353.622 60.3523 351.759 60.3523C349.948 60.3523 348.376 60.072 347.043 59.5114C345.717 58.9508 344.679 58.1326 343.929 57.0568C343.187 55.9811 342.785 54.6705 342.725 53.125H346.872C346.933 53.9356 347.183 54.6098 347.622 55.1477C348.062 55.6856 348.634 56.0871 349.338 56.3523C350.05 56.6174 350.846 56.75 351.725 56.75C352.641 56.75 353.444 56.6136 354.134 56.3409C354.831 56.0606 355.376 55.6742 355.77 55.1818C356.164 54.6818 356.365 54.0985 356.372 53.4318C356.365 52.8258 356.187 52.3258 355.838 51.9318C355.49 51.5303 355.001 51.197 354.372 50.9318C353.751 50.6591 353.024 50.4167 352.19 50.2045L349.543 49.5227C347.626 49.0303 346.111 48.2841 344.997 47.2841C343.891 46.2765 343.338 44.9394 343.338 43.2727C343.338 41.9015 343.709 40.7008 344.452 39.6705C345.202 38.6402 346.221 37.8409 347.509 37.2727C348.797 36.697 350.255 36.4091 351.884 36.4091C353.535 36.4091 354.982 36.697 356.225 37.2727C357.475 37.8409 358.456 38.6326 359.168 39.6477C359.88 40.6553 360.247 41.8144 360.27 43.125H356.213ZM375.441 42.5455V45.7273H365.407V42.5455H375.441ZM367.884 38.3636H371.998V54.75C371.998 55.303 372.081 55.7273 372.248 56.0227C372.422 56.3106 372.649 56.5076 372.929 56.6136C373.21 56.7197 373.52 56.7727 373.861 56.7727C374.119 56.7727 374.354 56.7538 374.566 56.7159C374.786 56.678 374.952 56.6439 375.066 56.6136L375.759 59.8295C375.539 59.9053 375.225 59.9886 374.816 60.0795C374.414 60.1705 373.922 60.2235 373.339 60.2386C372.308 60.2689 371.38 60.1136 370.554 59.7727C369.729 59.4242 369.073 58.8864 368.589 58.1591C368.111 57.4318 367.876 56.5227 367.884 55.4318V38.3636ZM386.464 60.3523C385.358 60.3523 384.362 60.1553 383.475 59.7614C382.596 59.3598 381.899 58.7689 381.384 57.9886C380.877 57.2083 380.623 56.2462 380.623 55.1023C380.623 54.1174 380.805 53.303 381.168 52.6591C381.532 52.0152 382.028 51.5 382.657 51.1136C383.286 50.7273 383.994 50.4356 384.782 50.2386C385.578 50.0341 386.399 49.8864 387.248 49.7955C388.271 49.6894 389.1 49.5947 389.737 49.5114C390.373 49.4205 390.835 49.2841 391.123 49.1023C391.418 48.9129 391.566 48.6212 391.566 48.2273V48.1591C391.566 47.303 391.312 46.6402 390.805 46.1705C390.297 45.7008 389.566 45.4659 388.612 45.4659C387.604 45.4659 386.805 45.6856 386.214 46.125C385.631 46.5644 385.237 47.0833 385.032 47.6818L381.191 47.1364C381.494 46.0758 381.994 45.1894 382.691 44.4773C383.388 43.7576 384.24 43.2197 385.248 42.8636C386.256 42.5 387.369 42.3182 388.589 42.3182C389.43 42.3182 390.267 42.4167 391.1 42.6136C391.934 42.8106 392.695 43.1364 393.384 43.5909C394.074 44.0379 394.627 44.6477 395.043 45.4205C395.468 46.1932 395.68 47.1591 395.68 48.3182V60H391.725V57.6023H391.589C391.339 58.0871 390.987 58.5417 390.532 58.9659C390.085 59.3826 389.521 59.7197 388.839 59.9773C388.165 60.2273 387.373 60.3523 386.464 60.3523ZM387.532 57.3295C388.358 57.3295 389.074 57.1667 389.68 56.8409C390.286 56.5076 390.752 56.0682 391.078 55.5227C391.411 54.9773 391.578 54.3826 391.578 53.7386V51.6818C391.449 51.7879 391.229 51.8864 390.918 51.9773C390.615 52.0682 390.274 52.1477 389.896 52.2159C389.517 52.2841 389.142 52.3447 388.771 52.3977C388.399 52.4508 388.078 52.4962 387.805 52.5341C387.191 52.6174 386.642 52.7538 386.157 52.9432C385.672 53.1326 385.29 53.3977 385.009 53.7386C384.729 54.072 384.589 54.5038 384.589 55.0341C384.589 55.7917 384.865 56.3636 385.418 56.75C385.971 57.1364 386.676 57.3295 387.532 57.3295ZM409.99 60.3409C408.247 60.3409 406.751 59.9583 405.501 59.1932C404.259 58.428 403.3 57.3712 402.626 56.0227C401.959 54.6667 401.626 53.1061 401.626 51.3409C401.626 49.5682 401.967 48.0038 402.649 46.6477C403.331 45.2841 404.293 44.2235 405.535 43.4659C406.785 42.7008 408.263 42.3182 409.967 42.3182C411.384 42.3182 412.638 42.5795 413.728 43.1023C414.827 43.6174 415.702 44.3485 416.353 45.2955C417.005 46.2348 417.376 47.3333 417.467 48.5909H413.535C413.376 47.75 412.997 47.0492 412.399 46.4886C411.808 45.9205 411.016 45.6364 410.024 45.6364C409.183 45.6364 408.444 45.8636 407.808 46.3182C407.172 46.7652 406.675 47.4091 406.319 48.25C405.971 49.0909 405.797 50.0985 405.797 51.2727C405.797 52.4621 405.971 53.4848 406.319 54.3409C406.668 55.1894 407.156 55.8447 407.785 56.3068C408.422 56.7614 409.168 56.9886 410.024 56.9886C410.63 56.9886 411.172 56.875 411.649 56.6477C412.134 56.4129 412.539 56.0758 412.865 55.6364C413.191 55.197 413.414 54.6629 413.535 54.0341H417.467C417.369 55.2689 417.005 56.3636 416.376 57.3182C415.747 58.2652 414.891 59.0076 413.808 59.5455C412.725 60.0758 411.452 60.3409 409.99 60.3409ZM427.155 54.5227L427.144 49.5568H427.803L434.075 42.5455H438.882L431.166 51.1364H430.314L427.155 54.5227ZM423.405 60V36.7273H427.519V60H423.405ZM434.359 60L428.678 52.0568L431.45 49.1591L439.28 60H434.359ZM457.979 47.1591L454.229 47.5682C454.123 47.1894 453.937 46.8333 453.672 46.5C453.415 46.1667 453.066 45.8977 452.627 45.6932C452.187 45.4886 451.65 45.3864 451.013 45.3864C450.157 45.3864 449.437 45.572 448.854 45.9432C448.278 46.3144 447.994 46.7955 448.002 47.3864C447.994 47.8939 448.18 48.3068 448.559 48.625C448.945 48.9432 449.581 49.2045 450.468 49.4091L453.445 50.0455C455.097 50.4015 456.324 50.9659 457.127 51.7386C457.937 52.5114 458.347 53.5227 458.354 54.7727C458.347 55.8712 458.025 56.8409 457.388 57.6818C456.759 58.5152 455.884 59.1667 454.763 59.6364C453.642 60.1061 452.354 60.3409 450.9 60.3409C448.763 60.3409 447.043 59.8939 445.74 59C444.437 58.0985 443.661 56.8447 443.411 55.2386L447.422 54.8523C447.604 55.6402 447.99 56.2348 448.581 56.6364C449.172 57.0379 449.941 57.2386 450.888 57.2386C451.865 57.2386 452.65 57.0379 453.24 56.6364C453.839 56.2348 454.138 55.7386 454.138 55.1477C454.138 54.6477 453.945 54.2348 453.559 53.9091C453.18 53.5833 452.589 53.3333 451.786 53.1591L448.809 52.5341C447.134 52.1856 445.896 51.5985 445.093 50.7727C444.29 49.9394 443.892 48.8864 443.9 47.6136C443.892 46.5379 444.184 45.6061 444.775 44.8182C445.373 44.0227 446.203 43.4091 447.263 42.9773C448.331 42.5379 449.562 42.3182 450.956 42.3182C453.002 42.3182 454.612 42.7538 455.786 43.625C456.968 44.4962 457.699 45.6742 457.979 47.1591ZM481.758 60.3409C480.167 60.3409 478.8 60.053 477.656 59.4773C476.512 58.9015 475.629 58.125 475.008 57.1477C474.395 56.1629 474.088 55.053 474.088 53.8182C474.088 52.8864 474.277 52.0606 474.656 51.3409C475.042 50.6212 475.573 49.9545 476.247 49.3409C476.929 48.7273 477.717 48.1174 478.61 47.5114L482.735 44.7045C483.342 44.3106 483.8 43.8939 484.11 43.4545C484.429 43.0152 484.588 42.5 484.588 41.9091C484.588 41.4091 484.376 40.9356 483.951 40.4886C483.535 40.0417 482.959 39.8182 482.224 39.8182C481.732 39.8182 481.296 39.9356 480.917 40.1705C480.546 40.3977 480.254 40.697 480.042 41.0682C479.838 41.4394 479.735 41.8333 479.735 42.25C479.735 42.7576 479.876 43.2727 480.156 43.7955C480.444 44.3182 480.815 44.8598 481.27 45.4205C481.732 45.9811 482.224 46.5758 482.747 47.2045L493.667 60H489.213L480.145 49.6136C479.47 48.8258 478.819 48.0492 478.19 47.2841C477.569 46.5189 477.057 45.7235 476.656 44.8977C476.262 44.0644 476.065 43.1629 476.065 42.1932C476.065 41.0947 476.319 40.1136 476.826 39.25C477.334 38.3788 478.042 37.6932 478.951 37.1932C479.868 36.6932 480.94 36.4432 482.167 36.4432C483.395 36.4432 484.448 36.6856 485.326 37.1705C486.205 37.6553 486.883 38.2992 487.36 39.1023C487.838 39.9053 488.076 40.7803 488.076 41.7273C488.076 42.8258 487.804 43.8106 487.258 44.6818C486.713 45.5455 485.955 46.3295 484.985 47.0341L480.281 50.4773C479.508 51.0379 478.955 51.6061 478.622 52.1818C478.288 52.75 478.122 53.2348 478.122 53.6364C478.122 54.25 478.277 54.8068 478.588 55.3068C478.898 55.8068 479.334 56.2083 479.895 56.5114C480.463 56.8068 481.126 56.9545 481.883 56.9545C482.717 56.9545 483.538 56.7689 484.349 56.3977C485.16 56.0189 485.898 55.4811 486.565 54.7841C487.232 54.0871 487.762 53.2538 488.156 52.2841C488.55 51.3068 488.747 50.2235 488.747 49.0341H492.281C492.281 50.5038 492.118 51.7841 491.792 52.875C491.467 53.9583 491.046 54.875 490.531 55.625C490.016 56.3674 489.47 56.9621 488.895 57.4091C488.713 57.5379 488.538 57.6667 488.372 57.7955C488.205 57.9242 488.031 58.053 487.849 58.1818C487.031 58.9242 486.073 59.4697 484.974 59.8182C483.883 60.1667 482.811 60.3409 481.758 60.3409ZM508.239 40.2614V36.7273H526.807V40.2614H519.614V60H515.432V40.2614H508.239ZM537.961 60.3409C536.211 60.3409 534.7 59.9773 533.427 59.25C532.162 58.5152 531.188 57.4773 530.506 56.1364C529.825 54.7879 529.484 53.2008 529.484 51.375C529.484 49.5795 529.825 48.0038 530.506 46.6477C531.196 45.2841 532.158 44.2235 533.393 43.4659C534.628 42.7008 536.078 42.3182 537.745 42.3182C538.821 42.3182 539.836 42.4924 540.79 42.8409C541.753 43.1818 542.601 43.7121 543.336 44.4318C544.078 45.1515 544.662 46.0682 545.086 47.1818C545.51 48.2879 545.722 49.6061 545.722 51.1364V52.3977H531.415V49.625H541.779C541.772 48.8371 541.601 48.1364 541.268 47.5227C540.934 46.9015 540.468 46.4129 539.87 46.0568C539.279 45.7008 538.59 45.5227 537.802 45.5227C536.961 45.5227 536.222 45.7273 535.586 46.1364C534.95 46.5379 534.453 47.0682 534.097 47.7273C533.749 48.3788 533.571 49.0947 533.563 49.875V52.2955C533.563 53.3106 533.749 54.1818 534.12 54.9091C534.491 55.6288 535.01 56.1818 535.677 56.5682C536.343 56.947 537.124 57.1364 538.018 57.1364C538.616 57.1364 539.158 57.053 539.643 56.8864C540.128 56.7121 540.548 56.4583 540.904 56.125C541.26 55.7917 541.529 55.3788 541.711 54.8864L545.552 55.3182C545.309 56.3333 544.847 57.2197 544.165 57.9773C543.491 58.7273 542.628 59.3106 541.575 59.7273C540.522 60.1364 539.317 60.3409 537.961 60.3409ZM559.376 60.3409C557.634 60.3409 556.137 59.9583 554.887 59.1932C553.645 58.428 552.687 57.3712 552.012 56.0227C551.346 54.6667 551.012 53.1061 551.012 51.3409C551.012 49.5682 551.353 48.0038 552.035 46.6477C552.717 45.2841 553.679 44.2235 554.921 43.4659C556.171 42.7008 557.649 42.3182 559.353 42.3182C560.77 42.3182 562.024 42.5795 563.115 43.1023C564.213 43.6174 565.088 44.3485 565.74 45.2955C566.391 46.2348 566.762 47.3333 566.853 48.5909H562.921C562.762 47.75 562.384 47.0492 561.785 46.4886C561.194 45.9205 560.403 45.6364 559.41 45.6364C558.569 45.6364 557.831 45.8636 557.194 46.3182C556.558 46.7652 556.062 47.4091 555.706 48.25C555.357 49.0909 555.183 50.0985 555.183 51.2727C555.183 52.4621 555.357 53.4848 555.706 54.3409C556.054 55.1894 556.543 55.8447 557.171 56.3068C557.808 56.7614 558.554 56.9886 559.41 56.9886C560.016 56.9886 560.558 56.875 561.035 56.6477C561.52 56.4129 561.925 56.0758 562.251 55.6364C562.577 55.197 562.8 54.6629 562.921 54.0341H566.853C566.755 55.2689 566.391 56.3636 565.762 57.3182C565.134 58.2652 564.278 59.0076 563.194 59.5455C562.111 60.0758 560.838 60.3409 559.376 60.3409ZM576.905 49.7727V60H572.791V36.7273H576.814V45.5114H577.018C577.427 44.5265 578.06 43.75 578.916 43.1818C579.78 42.6061 580.878 42.3182 582.212 42.3182C583.424 42.3182 584.481 42.572 585.382 43.0795C586.284 43.5871 586.981 44.3295 587.473 45.3068C587.973 46.2841 588.223 47.4773 588.223 48.8864V60H584.109V49.5227C584.109 48.3485 583.806 47.4356 583.2 46.7841C582.602 46.125 581.761 45.7955 580.677 45.7955C579.95 45.7955 579.299 45.9545 578.723 46.2727C578.155 46.5833 577.708 47.0341 577.382 47.625C577.064 48.2159 576.905 48.9318 576.905 49.7727ZM599.09 49.7727V60H594.976V42.5455H598.908V45.5114H599.112C599.514 44.5341 600.154 43.7576 601.033 43.1818C601.919 42.6061 603.014 42.3182 604.317 42.3182C605.522 42.3182 606.571 42.5758 607.465 43.0909C608.366 43.6061 609.063 44.3523 609.556 45.3295C610.056 46.3068 610.302 47.4924 610.294 48.8864V60H606.181V49.5227C606.181 48.3561 605.878 47.4432 605.272 46.7841C604.673 46.125 603.844 45.7955 602.783 45.7955C602.063 45.7955 601.423 45.9545 600.862 46.2727C600.309 46.5833 599.874 47.0341 599.556 47.625C599.245 48.2159 599.09 48.9318 599.09 49.7727ZM624.65 60.3409C622.945 60.3409 621.468 59.9659 620.218 59.2159C618.968 58.4659 617.998 57.4167 617.309 56.0682C616.627 54.7197 616.286 53.1439 616.286 51.3409C616.286 49.5379 616.627 47.9583 617.309 46.6023C617.998 45.2462 618.968 44.1932 620.218 43.4432C621.468 42.6932 622.945 42.3182 624.65 42.3182C626.354 42.3182 627.832 42.6932 629.082 43.4432C630.332 44.1932 631.297 45.2462 631.979 46.6023C632.669 47.9583 633.013 49.5379 633.013 51.3409C633.013 53.1439 632.669 54.7197 631.979 56.0682C631.297 57.4167 630.332 58.4659 629.082 59.2159C627.832 59.9659 626.354 60.3409 624.65 60.3409ZM624.672 57.0455C625.597 57.0455 626.369 56.7917 626.991 56.2841C627.612 55.7689 628.074 55.0795 628.377 54.2159C628.688 53.3523 628.843 52.3902 628.843 51.3295C628.843 50.2614 628.688 49.2955 628.377 48.4318C628.074 47.5606 627.612 46.8674 626.991 46.3523C626.369 45.8371 625.597 45.5795 624.672 45.5795C623.726 45.5795 622.938 45.8371 622.309 46.3523C621.688 46.8674 621.222 47.5606 620.911 48.4318C620.608 49.2955 620.457 50.2614 620.457 51.3295C620.457 52.3902 620.608 53.3523 620.911 54.2159C621.222 55.0795 621.688 55.7689 622.309 56.2841C622.938 56.7917 623.726 57.0455 624.672 57.0455ZM643.179 36.7273V60H639.065V36.7273H643.179ZM657.582 60.3409C655.878 60.3409 654.4 59.9659 653.15 59.2159C651.9 58.4659 650.931 57.4167 650.241 56.0682C649.56 54.7197 649.219 53.1439 649.219 51.3409C649.219 49.5379 649.56 47.9583 650.241 46.6023C650.931 45.2462 651.9 44.1932 653.15 43.4432C654.4 42.6932 655.878 42.3182 657.582 42.3182C659.287 42.3182 660.764 42.6932 662.014 43.4432C663.264 44.1932 664.23 45.2462 664.912 46.6023C665.601 47.9583 665.946 49.5379 665.946 51.3409C665.946 53.1439 665.601 54.7197 664.912 56.0682C664.23 57.4167 663.264 58.4659 662.014 59.2159C660.764 59.9659 659.287 60.3409 657.582 60.3409ZM657.605 57.0455C658.529 57.0455 659.302 56.7917 659.923 56.2841C660.544 55.7689 661.006 55.0795 661.31 54.2159C661.62 53.3523 661.775 52.3902 661.775 51.3295C661.775 50.2614 661.62 49.2955 661.31 48.4318C661.006 47.5606 660.544 46.8674 659.923 46.3523C659.302 45.8371 658.529 45.5795 657.605 45.5795C656.658 45.5795 655.87 45.8371 655.241 46.3523C654.62 46.8674 654.154 47.5606 653.844 48.4318C653.541 49.2955 653.389 50.2614 653.389 51.3295C653.389 52.3902 653.541 53.3523 653.844 54.2159C654.154 55.0795 654.62 55.7689 655.241 56.2841C655.87 56.7917 656.658 57.0455 657.605 57.0455ZM679.588 66.9091C678.111 66.9091 676.842 66.7083 675.782 66.3068C674.721 65.9129 673.869 65.3826 673.225 64.7159C672.581 64.0492 672.134 63.3106 671.884 62.5L675.588 61.6023C675.755 61.9432 675.997 62.2803 676.316 62.6136C676.634 62.9545 677.062 63.2348 677.6 63.4545C678.145 63.6818 678.831 63.7955 679.657 63.7955C680.823 63.7955 681.789 63.5114 682.554 62.9432C683.319 62.3826 683.702 61.4583 683.702 60.1705V56.8636H683.497C683.285 57.2879 682.975 57.7235 682.566 58.1705C682.164 58.6174 681.63 58.9924 680.963 59.2955C680.304 59.5985 679.475 59.75 678.475 59.75C677.134 59.75 675.918 59.4356 674.827 58.8068C673.744 58.1705 672.88 57.2235 672.236 55.9659C671.6 54.7008 671.282 53.1174 671.282 51.2159C671.282 49.2992 671.6 47.6818 672.236 46.3636C672.88 45.0379 673.747 44.0341 674.838 43.3523C675.929 42.6629 677.145 42.3182 678.486 42.3182C679.509 42.3182 680.35 42.4924 681.009 42.8409C681.675 43.1818 682.206 43.5947 682.6 44.0795C682.994 44.5568 683.293 45.0076 683.497 45.4318H683.725V42.5455H687.782V60.2841C687.782 61.7765 687.425 63.0114 686.713 63.9886C686.001 64.9659 685.028 65.697 683.793 66.1818C682.558 66.6667 681.157 66.9091 679.588 66.9091ZM679.622 56.5227C680.494 56.5227 681.236 56.3106 681.85 55.8864C682.463 55.4621 682.929 54.8523 683.247 54.0568C683.566 53.2614 683.725 52.3068 683.725 51.1932C683.725 50.0947 683.566 49.1326 683.247 48.3068C682.937 47.4811 682.475 46.8409 681.861 46.3864C681.255 45.9242 680.509 45.6932 679.622 45.6932C678.706 45.6932 677.941 45.9318 677.327 46.4091C676.713 46.8864 676.251 47.5417 675.941 48.375C675.63 49.2008 675.475 50.1402 675.475 51.1932C675.475 52.2614 675.63 53.197 675.941 54C676.259 54.7955 676.725 55.4167 677.338 55.8636C677.96 56.303 678.721 56.5227 679.622 56.5227ZM694.557 60V42.5455H698.671V60H694.557ZM696.626 40.0682C695.974 40.0682 695.413 39.8523 694.944 39.4205C694.474 38.9811 694.239 38.4545 694.239 37.8409C694.239 37.2197 694.474 36.6932 694.944 36.2614C695.413 35.822 695.974 35.6023 696.626 35.6023C697.285 35.6023 697.845 35.822 698.307 36.2614C698.777 36.6932 699.012 37.2197 699.012 37.8409C699.012 38.4545 698.777 38.9811 698.307 39.4205C697.845 39.8523 697.285 40.0682 696.626 40.0682ZM713.188 60.3409C711.438 60.3409 709.927 59.9773 708.654 59.25C707.389 58.5152 706.416 57.4773 705.734 56.1364C705.052 54.7879 704.711 53.2008 704.711 51.375C704.711 49.5795 705.052 48.0038 705.734 46.6477C706.423 45.2841 707.385 44.2235 708.62 43.4659C709.855 42.7008 711.306 42.3182 712.973 42.3182C714.048 42.3182 715.063 42.4924 716.018 42.8409C716.98 43.1818 717.829 43.7121 718.563 44.4318C719.306 45.1515 719.889 46.0682 720.313 47.1818C720.738 48.2879 720.95 49.6061 720.95 51.1364V52.3977H706.643V49.625H717.007C716.999 48.8371 716.829 48.1364 716.495 47.5227C716.162 46.9015 715.696 46.4129 715.098 46.0568C714.507 45.7008 713.817 45.5227 713.029 45.5227C712.188 45.5227 711.45 45.7273 710.813 46.1364C710.177 46.5379 709.681 47.0682 709.325 47.7273C708.976 48.3788 708.798 49.0947 708.791 49.875V52.2955C708.791 53.3106 708.976 54.1818 709.348 54.9091C709.719 55.6288 710.238 56.1818 710.904 56.5682C711.571 56.947 712.351 57.1364 713.245 57.1364C713.844 57.1364 714.385 57.053 714.87 56.8864C715.355 56.7121 715.776 56.4583 716.132 56.125C716.488 55.7917 716.757 55.3788 716.938 54.8864L720.779 55.3182C720.537 56.3333 720.075 57.2197 719.393 57.9773C718.719 58.7273 717.855 59.3106 716.802 59.7273C715.749 60.1364 714.545 60.3409 713.188 60.3409ZM740.785 47.1591L737.035 47.5682C736.929 47.1894 736.744 46.8333 736.478 46.5C736.221 46.1667 735.872 45.8977 735.433 45.6932C734.994 45.4886 734.456 45.3864 733.819 45.3864C732.963 45.3864 732.244 45.572 731.66 45.9432C731.085 46.3144 730.8 46.7955 730.808 47.3864C730.8 47.8939 730.986 48.3068 731.365 48.625C731.751 48.9432 732.388 49.2045 733.274 49.4091L736.251 50.0455C737.903 50.4015 739.13 50.9659 739.933 51.7386C740.744 52.5114 741.153 53.5227 741.16 54.7727C741.153 55.8712 740.831 56.8409 740.194 57.6818C739.566 58.5152 738.691 59.1667 737.569 59.6364C736.448 60.1061 735.16 60.3409 733.706 60.3409C731.569 60.3409 729.85 59.8939 728.547 59C727.244 58.0985 726.467 56.8447 726.217 55.2386L730.228 54.8523C730.41 55.6402 730.797 56.2348 731.388 56.6364C731.978 57.0379 732.747 57.2386 733.694 57.2386C734.672 57.2386 735.456 57.0379 736.047 56.6364C736.645 56.2348 736.944 55.7386 736.944 55.1477C736.944 54.6477 736.751 54.2348 736.365 53.9091C735.986 53.5833 735.395 53.3333 734.592 53.1591L731.615 52.5341C729.941 52.1856 728.702 51.5985 727.899 50.7727C727.096 49.9394 726.698 48.8864 726.706 47.6136C726.698 46.5379 726.99 45.6061 727.581 44.8182C728.179 44.0227 729.009 43.4091 730.069 42.9773C731.138 42.5379 732.369 42.3182 733.763 42.3182C735.808 42.3182 737.418 42.7538 738.592 43.625C739.774 44.4962 740.505 45.6742 740.785 47.1591Z" fill="#7DA7C0"/>
<path d="M160 122.166C142.327 122.166 128 129.704 128 139C128 148.297 142.327 155.834 160 155.834C177.673 155.834 192 148.297 192 139C192 129.704 177.673 122.166 160 122.166ZM157.009 127.071H160.655V127.073L159.783 131.557H163.031C165.075 131.557 166.485 131.913 167.26 132.626C168.036 133.339 168.269 134.494 167.959 136.091L166.432 143.941H162.729L164.18 136.477C164.345 135.628 164.284 135.049 163.997 134.74C163.71 134.432 163.101 134.278 162.168 134.278H159.254L157.376 143.94H153.73L157.009 127.071ZM141.365 131.557H148.431C150.558 131.557 152.109 132.115 153.084 133.231C154.059 134.347 154.352 135.904 153.963 137.904C153.803 138.728 153.532 139.481 153.15 140.164C152.769 140.847 152.271 141.471 151.656 142.037C150.922 142.723 150.106 143.213 149.21 143.505C148.313 143.797 147.17 143.942 145.781 143.942H142.634L141.762 148.427H138.087L141.365 131.557ZM170.048 131.557H177.113C179.239 131.557 180.789 132.115 181.764 133.231H181.765C182.741 134.347 183.034 135.904 182.646 137.904C182.486 138.728 182.215 139.481 181.834 140.164C181.453 140.847 180.954 141.471 180.338 142.037C179.605 142.723 178.789 143.213 177.891 143.505C176.995 143.797 175.852 143.942 174.464 143.942H171.317L170.444 148.427H166.77L170.048 131.557ZM144.522 134.22L143.151 141.28H145.385C146.867 141.28 147.971 141.001 148.697 140.443C149.421 139.885 149.911 138.953 150.165 137.647C150.408 136.393 150.297 135.508 149.832 134.993C149.367 134.477 148.437 134.219 147.04 134.219L144.522 134.22ZM173.204 134.22L171.832 141.28H174.067C175.549 141.28 176.653 141.001 177.378 140.443C178.102 139.885 178.592 138.953 178.846 137.647C179.089 136.393 178.978 135.508 178.514 134.993C178.049 134.477 177.118 134.219 175.722 134.219L173.204 134.22Z" fill="white"/>
<path d="M252.668 130.5H302.503V167.335H252.668V130.5Z" fill="white"/>
<path d="M242.083 138.955V170.205H304.583V107.705H242.083V138.955ZM292.448 136.455C293.945 136.802 295.306 137.585 296.358 138.705C296.938 139.308 297.441 139.98 297.858 140.705C297.858 140.785 295.158 142.61 293.513 143.63C293.453 143.67 293.213 143.41 292.948 143.015C292.648 142.497 292.221 142.063 291.708 141.755C291.195 141.446 290.612 141.272 290.013 141.25C288.118 141.12 286.898 142.115 286.908 143.75C286.893 144.157 286.986 144.561 287.178 144.92C287.593 145.785 288.368 146.3 290.798 147.35C295.273 149.275 297.188 150.545 298.378 152.35C299.708 154.35 300.003 157.58 299.103 159.97C298.103 162.57 295.653 164.335 292.188 164.92C290.606 165.101 289.007 165.085 287.428 164.87C285.009 164.471 282.781 163.31 281.068 161.555C280.493 160.92 279.373 159.265 279.443 159.145C279.625 159.009 279.818 158.887 280.018 158.78L282.333 157.5L284.128 156.46L284.503 157.015C285.136 157.92 285.942 158.691 286.873 159.285C288.873 160.335 291.603 160.19 292.953 158.975C293.407 158.53 293.689 157.94 293.752 157.307C293.815 156.675 293.655 156.041 293.298 155.515C292.798 154.82 291.798 154.235 289.003 153.015C285.778 151.625 284.388 150.765 283.118 149.395C282.326 148.491 281.74 147.424 281.403 146.27C281.152 144.951 281.115 143.601 281.293 142.27C281.958 139.155 284.293 136.98 287.703 136.335C289.283 136.14 290.882 136.184 292.448 136.465V136.455ZM277.778 139.075V141.635H269.663V164.75H263.908V141.63H255.773V139.13C255.748 138.268 255.768 137.405 255.833 136.545C255.873 136.5 260.833 136.5 266.833 136.5H277.748L277.778 139.075Z" fill="#007ACC"/>
<path d="M386.667 131C401.555 131 410.667 136.18 410.667 139C410.667 141.82 401.555 147 386.667 147C371.779 147 362.667 141.82 362.667 139C362.667 136.18 371.779 131 386.667 131ZM386.667 127C371.203 127 358.667 132.372 358.667 139C358.667 145.628 371.203 151 386.667 151C402.131 151 414.667 145.628 414.667 139C414.667 132.372 402.131 127 386.667 127Z" fill="#00BCD4"/>
<path d="M386.667 135C385.876 135 385.102 135.235 384.444 135.674C383.787 136.114 383.274 136.738 382.971 137.469C382.668 138.2 382.589 139.004 382.743 139.78C382.898 140.556 383.279 141.269 383.838 141.828C384.398 142.388 385.11 142.769 385.886 142.923C386.662 143.077 387.466 142.998 388.197 142.696C388.928 142.393 389.553 141.88 389.993 141.222C390.432 140.564 390.667 139.791 390.667 139C390.667 137.939 390.245 136.922 389.495 136.172C388.745 135.421 387.727 135 386.667 135Z" fill="#00BCD4"/>
<path d="M375.583 118.014C379.617 118.014 387.457 124.368 393.595 135C401.039 147.894 401.109 158.374 398.667 159.784C398.385 159.93 398.07 159.999 397.753 159.984C393.719 159.984 385.877 153.632 379.739 143C372.295 130.106 372.225 119.626 374.667 118.216C374.949 118.07 375.265 117.999 375.583 118.014ZM375.581 114.016C374.561 113.998 373.556 114.251 372.667 114.75C366.927 118.064 368.543 131.608 376.275 145C382.843 156.38 391.715 163.986 397.755 163.986C398.774 164.003 399.779 163.748 400.667 163.248C406.407 159.936 404.791 146.392 397.059 133C390.491 121.62 381.619 114.014 375.579 114.014L375.581 114.016Z" fill="#00BCD4"/>
<path d="M397.753 118.014C398.07 117.999 398.385 118.068 398.667 118.214C401.109 119.626 401.039 130.106 393.595 143C387.455 153.632 379.615 159.986 375.581 159.986C375.264 160.001 374.948 159.932 374.667 159.786C372.225 158.372 372.295 147.892 379.739 135C385.879 124.368 393.719 118.014 397.753 118.014ZM397.753 114.014C391.713 114.014 382.843 121.622 376.273 133C368.545 146.392 366.927 159.936 372.667 163.248C373.555 163.748 374.561 164.003 375.581 163.986C381.621 163.986 390.491 156.378 397.061 145C404.789 131.608 406.407 118.064 400.667 114.752C399.778 114.252 398.772 113.997 397.753 114.014Z" fill="#00BCD4"/>
<path d="M532 121.841C532 121.841 510.666 106.143 494.163 109.766L492.956 110.168C490.541 110.973 488.528 112.181 487.321 113.791L486.516 114.998L480.478 125.464L490.943 127.476C495.371 130.294 501.006 131.501 506.239 130.294L524.754 133.917L532 121.841Z" fill="#76B3E1"/>
<path opacity="0.3" d="M532 121.841C532 121.841 510.666 106.143 494.163 109.766L492.956 110.168C490.541 110.973 488.528 112.181 487.321 113.791L486.516 114.998L480.478 125.464L490.943 127.476C495.371 130.294 501.006 131.501 506.239 130.294L524.754 133.917L532 121.841Z" fill="url(#paint1_linear_31_169)"/>
<path d="M487.321 121.842L485.711 122.244C478.868 124.257 476.855 130.697 480.478 136.332C484.503 141.565 492.956 144.382 499.798 142.37L524.754 133.917C524.754 133.917 503.422 118.219 487.321 121.842Z" fill="#518AC8"/>
<path opacity="0.3" d="M487.321 121.842L485.711 122.244C478.868 124.257 476.855 130.697 480.478 136.332C484.503 141.565 492.956 144.382 499.798 142.37L524.754 133.917C524.754 133.917 503.422 118.219 487.321 121.842Z" fill="url(#paint2_linear_31_169)"/>
<path d="M520.327 139.955C518.073 137.14 515.031 135.061 511.589 133.986C508.147 132.91 504.462 132.886 501.007 133.917L476.05 141.967L468 156.056L513.082 163.703L521.132 149.213C522.742 146.395 522.339 143.175 520.327 139.955V139.955Z" fill="url(#paint3_linear_31_169)"/>
<path d="M512.277 154.043C510.023 151.227 506.98 149.149 503.538 148.073C500.096 146.998 496.412 146.974 492.956 148.005L468 156.055C468 156.055 489.333 172.156 505.836 168.131L507.044 167.728C513.887 165.716 516.302 159.275 512.277 154.043Z" fill="url(#paint4_linear_31_169)"/>
<path d="M622.085 111.732C622.572 112.336 622.82 113.15 623.314 114.777L634.142 150.345C630.075 148.234 625.71 146.756 621.197 145.963L614.148 122.14C614.092 121.95 613.976 121.782 613.817 121.663C613.659 121.544 613.465 121.48 613.267 121.481C613.069 121.481 612.876 121.545 612.717 121.665C612.559 121.784 612.443 121.951 612.388 122.142L605.423 145.951C600.891 146.741 596.506 148.222 592.422 150.34L603.301 114.77C603.799 113.145 604.047 112.332 604.533 111.728C604.962 111.197 605.52 110.784 606.154 110.529C606.871 110.242 607.722 110.242 609.422 110.242H617.193C618.894 110.242 619.746 110.242 620.465 110.531C621.099 110.787 621.656 111.2 622.085 111.732Z" fill="url(#paint5_linear_31_169)"/>
<path d="M623.38 152.037C621.595 153.564 618.032 154.605 613.929 154.605C608.894 154.605 604.671 153.037 603.552 150.927C603.152 152.136 603.062 153.519 603.062 154.404C603.062 154.404 602.798 158.742 605.816 161.759C605.816 161.387 605.889 161.018 606.032 160.674C606.174 160.33 606.383 160.017 606.646 159.754C606.91 159.491 607.222 159.282 607.566 159.14C607.911 158.997 608.279 158.924 608.652 158.924C611.337 158.924 611.335 161.265 611.333 163.168V163.336C611.333 166.222 613.097 168.695 615.605 169.738C615.218 168.945 615.018 168.073 615.019 167.189C615.019 164.435 616.634 163.412 618.513 162.22C620.007 161.273 621.667 160.22 622.81 158.109C623.427 156.972 623.749 155.698 623.747 154.404C623.748 153.601 623.624 152.803 623.38 152.037Z" fill="#FF5D01"/>
<path d="M623.38 152.037C621.595 153.564 618.032 154.605 613.929 154.605C608.894 154.605 604.671 153.037 603.552 150.927C603.152 152.136 603.062 153.519 603.062 154.404C603.062 154.404 602.798 158.742 605.816 161.759C605.816 161.387 605.889 161.018 606.032 160.674C606.174 160.33 606.383 160.017 606.646 159.754C606.91 159.491 607.222 159.282 607.566 159.14C607.911 158.997 608.279 158.924 608.652 158.924C611.337 158.924 611.335 161.265 611.333 163.168V163.336C611.333 166.222 613.097 168.695 615.605 169.738C615.218 168.945 615.018 168.073 615.019 167.189C615.019 164.435 616.634 163.412 618.513 162.22C620.007 161.273 621.667 160.22 622.81 158.109C623.427 156.972 623.749 155.698 623.747 154.404C623.748 153.601 623.624 152.803 623.38 152.037Z" fill="url(#paint6_linear_31_169)"/>
<g clip-path="url(#clip0_31_169)">
<path d="M751.539 128C751.409 127.867 751.276 127.738 751.139 127.614C751.003 127.491 750.875 127.352 750.739 127.228C750.603 127.105 750.475 126.966 750.339 126.843C750.203 126.719 750.075 126.58 749.939 126.457C749.803 126.333 749.675 126.195 749.539 126.071C749.403 125.948 749.275 125.809 749.139 125.685C749.003 125.562 748.875 125.423 748.739 125.3C752.707 129.06 754.98 134.176 755.067 139.54C755.067 152.323 741.611 162.722 725.067 162.722C715.803 162.722 707.515 159.459 702.003 154.344L702.403 154.73L702.803 155.115L703.203 155.501L703.603 155.887L704.003 156.273L704.403 156.658L704.803 157.044C710.307 162.375 718.779 165.807 728.267 165.807C744.811 165.807 758.267 155.409 758.267 142.665C758.267 137.218 755.835 132.057 751.539 128Z" fill="black"/>
<path d="M753.067 139.54C753.067 151.273 740.531 160.785 725.067 160.785C709.603 160.785 697.067 151.273 697.067 139.54C697.067 132.265 701.867 125.839 709.243 122.028C716.619 118.217 721.211 114.314 725.067 114.314C728.923 114.314 732.219 117.5 740.891 122.029C748.267 125.838 753.067 132.265 753.067 139.54Z" fill="#FBF0DF"/>
<path d="M753.067 139.54C753.063 138.031 752.847 136.53 752.427 135.081C750.243 160.77 717.747 162.004 704.971 154.321C710.714 158.613 717.801 160.893 725.067 160.785C740.507 160.785 753.067 151.258 753.067 139.54Z" fill="#F6DECE"/>
<path d="M714.291 120.617C717.867 118.549 722.619 114.669 727.291 114.661C726.57 114.437 725.821 114.32 725.067 114.314C723.131 114.314 721.067 115.279 718.467 116.729C717.563 117.238 716.627 117.801 715.635 118.387C713.771 119.498 711.635 120.755 709.235 122.013C701.619 125.986 697.067 132.535 697.067 139.54V140.458C701.915 123.941 710.723 122.684 714.291 120.617Z" fill="#FFFEFC"/>
<path d="M722.763 116.266C722.773 118.092 722.376 119.897 721.6 121.55C720.815 123.221 719.674 124.7 718.259 125.885C718.035 126.078 718.211 126.449 718.499 126.34C721.195 125.33 724.835 122.306 723.299 116.204C723.235 115.857 722.763 115.949 722.763 116.266ZM724.579 116.266C725.554 117.797 726.176 119.525 726.402 121.326C726.624 123.119 726.442 124.938 725.867 126.657C725.771 126.927 726.115 127.158 726.307 126.935C728.059 124.775 729.587 120.485 725.011 115.857C724.779 115.657 724.419 115.965 724.579 116.235V116.266ZM726.787 116.135C728.31 117.171 729.592 118.522 730.547 120.097C731.49 121.653 732.077 123.398 732.267 125.207C732.259 125.272 732.277 125.337 732.317 125.389C732.359 125.442 732.419 125.477 732.485 125.488C732.552 125.499 732.62 125.484 732.676 125.448C732.704 125.43 732.728 125.408 732.747 125.381C732.766 125.354 732.779 125.324 732.787 125.291C733.523 122.599 733.107 118.009 727.051 115.625C726.731 115.502 726.523 115.919 726.787 116.104V116.135ZM712.019 124.157C713.832 123.638 715.519 122.749 716.974 121.546C718.408 120.361 719.574 118.885 720.395 117.215C720.539 116.937 720.995 117.045 720.923 117.353C719.539 123.525 714.907 124.813 712.027 124.643C711.723 124.651 711.731 124.242 712.019 124.157Z" fill="#CCBEA7"/>
<path d="M725.067 162.721C708.523 162.721 695.067 152.322 695.067 139.54C695.067 131.825 700.011 124.628 708.291 120.316C710.691 119.081 712.747 117.839 714.579 116.752C715.587 116.15 716.539 115.587 717.459 115.062C720.267 113.458 722.667 112.385 725.067 112.385C727.467 112.385 729.563 113.311 732.187 114.808C732.987 115.248 733.787 115.726 734.643 116.25C736.635 117.438 738.883 118.78 741.843 120.316C750.123 124.628 755.067 131.818 755.067 139.54C755.067 152.322 741.611 162.721 725.067 162.721ZM725.067 114.314C723.131 114.314 721.067 115.278 718.467 116.729C717.563 117.238 716.627 117.801 715.635 118.387C713.771 119.498 711.635 120.755 709.235 122.013C701.619 125.986 697.067 132.535 697.067 139.54C697.067 151.258 709.627 160.793 725.067 160.793C740.507 160.793 753.067 151.258 753.067 139.54C753.067 132.535 748.515 125.986 740.891 122.028C737.867 120.485 735.507 119.035 733.595 117.893C732.723 117.377 731.923 116.898 731.195 116.474C728.771 115.085 727.003 114.314 725.067 114.314Z" fill="black"/>
<path d="M730.707 145.171C730.347 146.591 729.529 147.863 728.371 148.805C727.49 149.623 726.366 150.132 725.171 150.255C723.939 150.152 722.776 149.642 721.867 148.805C720.72 147.859 719.914 146.587 719.563 145.171C719.552 145.087 719.56 145.002 719.588 144.921C719.616 144.841 719.662 144.767 719.724 144.707C719.787 144.647 719.862 144.601 719.945 144.574C720.028 144.546 720.116 144.537 720.203 144.546H730.075C730.161 144.538 730.248 144.548 730.33 144.577C730.411 144.605 730.486 144.651 730.548 144.711C730.609 144.77 730.655 144.842 730.683 144.922C730.71 145.002 730.718 145.088 730.707 145.171Z" fill="#B71422"/>
<path d="M721.867 148.867C722.774 149.704 723.933 150.219 725.163 150.333C726.39 150.218 727.545 149.703 728.451 148.867C728.736 148.61 729.003 148.334 729.251 148.042C728.754 147.499 728.152 147.063 727.482 146.76C726.804 146.453 726.074 146.283 725.331 146.26C724.536 146.276 723.757 146.481 723.056 146.856C722.364 147.225 721.772 147.756 721.331 148.404C721.515 148.566 721.675 148.72 721.867 148.867Z" fill="#FF6164"/>
<path d="M721.995 148.257C722.395 147.759 722.903 147.358 723.48 147.084C724.063 146.804 724.7 146.657 725.347 146.653C726.536 146.683 727.674 147.147 728.547 147.957C728.731 147.764 728.907 147.563 729.075 147.363C728.057 146.428 726.712 145.896 725.307 145.874C724.558 145.88 723.819 146.046 723.139 146.361C722.467 146.672 721.871 147.127 721.395 147.694C721.584 147.892 721.784 148.08 721.995 148.257Z" fill="black"/>
<path d="M725.139 150.718C723.815 150.609 722.563 150.067 721.579 149.175C720.34 148.165 719.469 146.8 719.091 145.28C719.064 145.145 719.068 145.005 719.104 144.871C719.14 144.737 719.207 144.612 719.299 144.508C719.409 144.38 719.548 144.278 719.704 144.211C719.861 144.142 720.031 144.109 720.203 144.115H730.075C730.246 144.111 730.416 144.145 730.573 144.213C730.728 144.28 730.867 144.381 730.979 144.508C731.07 144.614 731.135 144.738 731.17 144.872C731.205 145.006 731.208 145.145 731.179 145.28C730.801 146.801 729.929 148.165 728.691 149.175C727.708 150.065 726.46 150.607 725.139 150.718ZM720.203 145.01C720.075 145.01 720.043 145.064 720.035 145.079C720.373 146.398 721.138 147.579 722.219 148.45C723.019 149.206 724.044 149.68 725.139 149.8C726.23 149.681 727.254 149.213 728.059 148.465C729.136 147.593 729.898 146.412 730.235 145.095C730.217 145.07 730.193 145.05 730.165 145.038C730.136 145.026 730.105 145.021 730.075 145.025L720.203 145.01Z" fill="black"/>
<path d="M737.243 145.65C739.828 145.65 741.923 144.462 741.923 142.996C741.923 141.531 739.828 140.343 737.243 140.343C734.658 140.343 732.563 141.531 732.563 142.996C732.563 144.462 734.658 145.65 737.243 145.65ZM713.027 145.65C715.612 145.65 717.707 144.462 717.707 142.996C717.707 141.531 715.612 140.343 713.027 140.343C710.442 140.343 708.347 141.531 708.347 142.996C708.347 144.462 710.442 145.65 713.027 145.65Z" fill="#FEBBD0"/>
<path d="M715.227 141.932C716.095 141.934 716.946 141.687 717.678 141.219C718.397 140.759 718.964 140.096 719.305 139.313C719.64 138.54 719.728 137.682 719.559 136.857C719.387 136.025 718.967 135.266 718.355 134.678C717.731 134.079 716.947 133.674 716.098 133.513C715.243 133.348 714.359 133.431 713.55 133.753C712.75 134.069 712.062 134.614 711.57 135.319C711.087 136.012 710.828 136.836 710.827 137.681C710.827 138.807 711.29 139.887 712.115 140.684C712.94 141.481 714.059 141.93 715.227 141.932ZM735.043 141.932C735.912 141.939 736.765 141.695 737.5 141.23C738.223 140.773 738.793 140.111 739.138 139.329C739.477 138.556 739.569 137.698 739.402 136.871C739.232 136.038 738.814 135.277 738.203 134.687C737.581 134.085 736.797 133.678 735.947 133.515C735.091 133.347 734.205 133.429 733.395 133.751C732.595 134.067 731.905 134.611 731.412 135.316C730.928 136.01 730.668 136.835 730.667 137.681C730.665 138.804 731.124 139.881 731.944 140.678C732.764 141.475 733.879 141.926 735.043 141.932Z" fill="black"/>
<path d="M713.867 137.951C714.193 137.953 714.513 137.861 714.789 137.685C715.062 137.51 715.276 137.262 715.402 136.97C715.528 136.68 715.562 136.358 715.5 136.047C715.435 135.735 715.278 135.449 715.049 135.227C714.815 135.002 714.52 134.849 714.201 134.788C713.879 134.726 713.547 134.757 713.243 134.878C712.942 134.997 712.683 135.201 712.498 135.466C712.316 135.726 712.219 136.036 712.219 136.354C712.219 136.776 712.392 137.181 712.701 137.48C713.014 137.782 713.432 137.951 713.867 137.951ZM733.683 137.951C734.009 137.953 734.329 137.861 734.605 137.685C734.878 137.51 735.092 137.262 735.218 136.97C735.344 136.68 735.378 136.358 735.316 136.047C735.251 135.735 735.094 135.449 734.865 135.227C734.631 135.002 734.336 134.849 734.017 134.788C733.695 134.726 733.363 134.757 733.059 134.878C732.758 134.997 732.499 135.201 732.314 135.466C732.132 135.726 732.035 136.036 732.035 136.354C732.035 136.774 732.206 137.176 732.511 137.475C732.816 137.774 733.231 137.945 733.667 137.951H733.683Z" fill="white"/>
</g>
<path d="M840 108.15C822.95 108.15 809.15 121.95 809.15 139C809.15 156.05 822.95 169.85 840 169.85C857.05 169.85 870.85 156.05 870.85 139C870.85 121.95 857.05 108.15 840 108.15ZM856.65 126C855.2 126.05 854.25 125.2 854.2 123.9C854.2 123.4 854.3 123 854.65 122.5C854.95 121.9 855.05 121.8 855.05 121.55C855 120.75 853.8 120.7 853.45 120.7C848.8 120.85 847.6 127.1 846.6 132.2L846.1 134.9C848.75 135.3 850.65 134.8 851.7 134.15C853.2 133.2 851.3 132.2 851.5 131.1C851.75 130 852.75 129.45 853.55 129.4C854.7 129.35 855.5 130.55 855.45 131.75C855.4 133.7 852.8 136.45 847.55 136.3C846.9 136.3 846.35 136.25 845.8 136.2L844.8 141.65C843.9 145.75 842.75 151.4 838.55 156.3C834.95 160.6 831.3 161.25 829.65 161.3C826.6 161.4 824.55 159.75 824.5 157.6C824.45 155.5 826.3 154.35 827.5 154.3C829.15 154.25 830.25 155.45 830.3 156.8C830.35 157.95 829.75 158.3 829.35 158.55C829.1 158.75 828.7 159 828.7 159.45C828.7 159.65 828.95 160.1 829.6 160.1C830.9 160.05 831.75 159.4 832.35 159C835.35 156.5 836.5 152.15 838 144.3L838.3 142.4C838.8 139.85 839.4 136.95 840.25 134.1C838.15 132.5 836.9 130.55 834.05 129.8C832.1 129.25 830.95 129.7 830.1 130.75C829.1 132 829.45 133.6 830.4 134.55L831.95 136.3C833.9 138.55 834.95 140.25 834.55 142.6C834 146.25 829.55 149.1 824.3 147.5C819.8 146.1 819 142.95 819.55 141.2C820 139.65 821.25 139.35 822.45 139.75C823.75 140.15 824.25 141.7 823.85 142.9C823.8 143.05 823.75 143.25 823.6 143.5C823.45 143.85 823.2 144.1 823.05 144.5C822.75 145.45 824.05 146.1 824.95 146.4C826.95 147 828.9 145.95 829.4 144.35C829.85 142.85 828.9 141.8 828.55 141.4L826.65 139.35C825.8 138.4 823.85 135.7 824.8 132.65C825.15 131.5 825.9 130.25 827 129.45C829.3 127.7 831.85 127.45 834.25 128.15C837.35 129.05 838.85 131.1 840.8 132.7C841.9 129.55 843.4 126.4 845.65 123.8C847.7 121.4 850.4 119.7 853.55 119.55C856.7 119.45 859.05 120.85 859.15 123.1C859.1 124.1 858.55 125.95 856.65 126Z" fill="#EAE7EB"/>
<defs>
<radialGradient id="paint0_radial_31_169" cx="0" cy="0" r="1" gradientUnits="userSpaceOnUse" gradientTransform="translate(500 200) scale(500 274.625)">
<stop stop-color="#191919"/>
<stop offset="1" stop-color="#2C2C2C"/>
</radialGradient>
<linearGradient id="paint1_linear_31_169" x1="477.459" y1="108.961" x2="527.572" y2="133.313" gradientUnits="userSpaceOnUse">
<stop offset="0.1" stop-color="#76B3E1"/>
<stop offset="0.3" stop-color="#DCF2FD"/>
<stop offset="1" stop-color="#76B3E1"/>
</linearGradient>
<linearGradient id="paint2_linear_31_169" x1="504.951" y1="120.876" x2="496.176" y2="150.098" gradientUnits="userSpaceOnUse">
<stop stop-color="#76B3E1"/>
<stop offset="0.5" stop-color="#4377BB"/>
<stop offset="1" stop-color="#1F3B77"/>
</linearGradient>
<linearGradient id="paint3_linear_31_169" x1="473.796" y1="133.595" x2="524.473" y2="168.05" gradientUnits="userSpaceOnUse">
<stop stop-color="#315AA9"/>
<stop offset="0.5" stop-color="#518AC8"/>
<stop offset="1" stop-color="#315AA9"/>
</linearGradient>
<linearGradient id="paint4_linear_31_169" x1="496.659" y1="137.741" x2="476.211" y2="212.729" gradientUnits="userSpaceOnUse">
<stop stop-color="#4377BB"/>
<stop offset="0.5" stop-color="#1A336B"/>
<stop offset="1" stop-color="#1A336B"/>
</linearGradient>
<linearGradient id="paint5_linear_31_169" x1="625.483" y1="108.356" x2="613.281" y2="150.345" gradientUnits="userSpaceOnUse">
<stop stop-color="#000014"/>
<stop offset="1" stop-color="#150426"/>
</linearGradient>
<linearGradient id="paint6_linear_31_169" x1="631.417" y1="139.622" x2="620.85" y2="161.745" gradientUnits="userSpaceOnUse">
<stop stop-color="#FF1639"/>
<stop offset="1" stop-color="#FF1639" stop-opacity="0"/>
</linearGradient>
<clipPath id="clip0_31_169">
<rect width="64" height="64" fill="white" transform="translate(694.667 107)"/>
</clipPath>
</defs>
</svg>
