<svg width="1000" height="160" viewBox="0 0 1000 160" fill="none" xmlns="http://www.w3.org/2000/svg">
<path d="M0 32C0 16.9151 0 9.37258 4.68629 4.68629C9.37258 0 16.9151 0 32 0H968C983.085 0 990.627 0 995.314 4.68629C1000 9.37258 1000 16.9151 1000 32V128C1000 143.085 1000 150.627 995.314 155.314C990.627 160 983.085 160 968 160H32C16.9151 160 9.37258 160 4.68629 155.314C0 150.627 0 143.085 0 128V32Z" fill="url(#paint0_radial_31_169)"/>
<path d="M32 0.5H968C975.556 0.5 981.173 0.500855 985.489 1.08105C989.791 1.65939 992.725 2.80528 994.96 5.04004C997.195 7.2748 998.341 10.2092 998.919 14.5107C999.499 18.8266 999.5 24.4437 999.5 32V128C999.5 135.556 999.499 141.173 998.919 145.489C998.341 149.791 997.195 152.725 994.96 154.96C992.725 157.195 989.791 158.341 985.489 158.919C981.173 159.499 975.556 159.5 968 159.5H32C24.4437 159.5 18.8266 159.499 14.5107 158.919C10.2092 158.341 7.2748 157.195 5.04004 154.96C2.80528 152.725 1.65939 149.791 1.08105 145.489C0.500855 141.173 0.5 135.556 0.5 128V32C0.5 24.4437 0.500855 18.8266 1.08105 14.5107C1.65939 10.2092 2.80528 7.2748 5.04004 5.04004C7.2748 2.80528 10.2092 1.65939 14.5107 1.08105C18.8266 0.500855 24.4437 0.5 32 0.5Z" stroke="white" stroke-opacity="0.2"/>
<path d="M259.857 27.7273H265.016L271.925 44.5909H272.198L279.107 27.7273H284.266V51H280.22V35.0114H280.004L273.573 50.9318H270.55L264.118 34.9773H263.902V51H259.857V27.7273ZM298.962 51.3409C297.212 51.3409 295.701 50.9773 294.428 50.25C293.163 49.5152 292.189 48.4773 291.508 47.1364C290.826 45.7879 290.485 44.2008 290.485 42.375C290.485 40.5795 290.826 39.0038 291.508 37.6477C292.197 36.2841 293.159 35.2235 294.394 34.4659C295.629 33.7008 297.08 33.3182 298.746 33.3182C299.822 33.3182 300.837 33.4924 301.792 33.8409C302.754 34.1818 303.602 34.7121 304.337 35.4318C305.08 36.1515 305.663 37.0682 306.087 38.1818C306.511 39.2879 306.724 40.6061 306.724 42.1364V43.3977H292.417V40.625H302.78C302.773 39.8371 302.602 39.1364 302.269 38.5227C301.936 37.9015 301.47 37.4129 300.871 37.0568C300.28 36.7008 299.591 36.5227 298.803 36.5227C297.962 36.5227 297.224 36.7273 296.587 37.1364C295.951 37.5379 295.455 38.0682 295.099 38.7273C294.75 39.3788 294.572 40.0947 294.564 40.875V43.2955C294.564 44.3106 294.75 45.1818 295.121 45.9091C295.492 46.6288 296.011 47.1818 296.678 47.5682C297.345 47.947 298.125 48.1364 299.019 48.1364C299.617 48.1364 300.159 48.053 300.644 47.8864C301.129 47.7121 301.549 47.4583 301.905 47.125C302.261 46.7917 302.53 46.3788 302.712 45.8864L306.553 46.3182C306.311 47.3333 305.849 48.2197 305.167 48.9773C304.492 49.7273 303.629 50.3106 302.576 50.7273C301.523 51.1364 300.318 51.3409 298.962 51.3409ZM326.559 38.1591L322.809 38.5682C322.703 38.1894 322.517 37.8333 322.252 37.5C321.995 37.1667 321.646 36.8977 321.207 36.6932C320.767 36.4886 320.23 36.3864 319.593 36.3864C318.737 36.3864 318.017 36.572 317.434 36.9432C316.858 37.3144 316.574 37.7955 316.582 38.3864C316.574 38.8939 316.76 39.3068 317.139 39.625C317.525 39.9432 318.161 40.2045 319.048 40.4091L322.025 41.0455C323.677 41.4015 324.904 41.9659 325.707 42.7386C326.517 43.5114 326.927 44.5227 326.934 45.7727C326.927 46.8712 326.605 47.8409 325.968 48.6818C325.339 49.5152 324.464 50.1667 323.343 50.6364C322.222 51.1061 320.934 51.3409 319.48 51.3409C317.343 51.3409 315.623 50.8939 314.32 50C313.017 49.0985 312.241 47.8447 311.991 46.2386L316.002 45.8523C316.184 46.6402 316.57 47.2348 317.161 47.6364C317.752 48.0379 318.521 48.2386 319.468 48.2386C320.445 48.2386 321.23 48.0379 321.82 47.6364C322.419 47.2348 322.718 46.7386 322.718 46.1477C322.718 45.6477 322.525 45.2348 322.139 44.9091C321.76 44.5833 321.169 44.3333 320.366 44.1591L317.389 43.5341C315.714 43.1856 314.476 42.5985 313.673 41.7727C312.87 40.9394 312.472 39.8864 312.48 38.6136C312.472 37.5379 312.764 36.6061 313.355 35.8182C313.953 35.0227 314.783 34.4091 315.843 33.9773C316.911 33.5379 318.142 33.3182 319.536 33.3182C321.582 33.3182 323.192 33.7538 324.366 34.625C325.548 35.4962 326.279 36.6742 326.559 38.1591ZM356.213 34.125C356.107 33.1326 355.66 32.3598 354.872 31.8068C354.092 31.2538 353.077 30.9773 351.827 30.9773C350.948 30.9773 350.194 31.1098 349.565 31.375C348.937 31.6402 348.456 32 348.122 32.4545C347.789 32.9091 347.618 33.428 347.611 34.0114C347.611 34.4962 347.721 34.9167 347.94 35.2727C348.168 35.6288 348.475 35.9318 348.861 36.1818C349.247 36.4242 349.675 36.6288 350.145 36.7955C350.615 36.9621 351.088 37.1023 351.565 37.2159L353.747 37.7614C354.626 37.9659 355.471 38.2424 356.281 38.5909C357.1 38.9394 357.831 39.3788 358.475 39.9091C359.126 40.4394 359.641 41.0795 360.02 41.8295C360.399 42.5795 360.588 43.4583 360.588 44.4659C360.588 45.8295 360.24 47.0303 359.543 48.0682C358.846 49.0985 357.838 49.9053 356.52 50.4886C355.209 51.0644 353.622 51.3523 351.759 51.3523C349.948 51.3523 348.376 51.072 347.043 50.5114C345.717 49.9508 344.679 49.1326 343.929 48.0568C343.187 46.9811 342.785 45.6705 342.725 44.125H346.872C346.933 44.9356 347.183 45.6098 347.622 46.1477C348.062 46.6856 348.634 47.0871 349.338 47.3523C350.05 47.6174 350.846 47.75 351.725 47.75C352.641 47.75 353.444 47.6136 354.134 47.3409C354.831 47.0606 355.376 46.6742 355.77 46.1818C356.164 45.6818 356.365 45.0985 356.372 44.4318C356.365 43.8258 356.187 43.3258 355.838 42.9318C355.49 42.5303 355.001 42.197 354.372 41.9318C353.751 41.6591 353.024 41.4167 352.19 41.2045L349.543 40.5227C347.626 40.0303 346.111 39.2841 344.997 38.2841C343.891 37.2765 343.338 35.9394 343.338 34.2727C343.338 32.9015 343.709 31.7008 344.452 30.6705C345.202 29.6402 346.221 28.8409 347.509 28.2727C348.797 27.697 350.255 27.4091 351.884 27.4091C353.535 27.4091 354.982 27.697 356.225 28.2727C357.475 28.8409 358.456 29.6326 359.168 30.6477C359.88 31.6553 360.247 32.8144 360.27 34.125H356.213ZM375.441 33.5455V36.7273H365.407V33.5455H375.441ZM367.884 29.3636H371.998V45.75C371.998 46.303 372.081 46.7273 372.248 47.0227C372.422 47.3106 372.649 47.5076 372.929 47.6136C373.21 47.7197 373.52 47.7727 373.861 47.7727C374.119 47.7727 374.354 47.7538 374.566 47.7159C374.786 47.678 374.952 47.6439 375.066 47.6136L375.759 50.8295C375.539 50.9053 375.225 50.9886 374.816 51.0795C374.414 51.1705 373.922 51.2235 373.339 51.2386C372.308 51.2689 371.38 51.1136 370.554 50.7727C369.729 50.4242 369.073 49.8864 368.589 49.1591C368.111 48.4318 367.876 47.5227 367.884 46.4318V29.3636ZM386.464 51.3523C385.358 51.3523 384.362 51.1553 383.475 50.7614C382.596 50.3598 381.899 49.7689 381.384 48.9886C380.877 48.2083 380.623 47.2462 380.623 46.1023C380.623 45.1174 380.805 44.303 381.168 43.6591C381.532 43.0152 382.028 42.5 382.657 42.1136C383.286 41.7273 383.994 41.4356 384.782 41.2386C385.578 41.0341 386.399 40.8864 387.248 40.7955C388.271 40.6894 389.1 40.5947 389.737 40.5114C390.373 40.4205 390.835 40.2841 391.123 40.1023C391.418 39.9129 391.566 39.6212 391.566 39.2273V39.1591C391.566 38.303 391.312 37.6402 390.805 37.1705C390.297 36.7008 389.566 36.4659 388.612 36.4659C387.604 36.4659 386.805 36.6856 386.214 37.125C385.631 37.5644 385.237 38.0833 385.032 38.6818L381.191 38.1364C381.494 37.0758 381.994 36.1894 382.691 35.4773C383.388 34.7576 384.24 34.2197 385.248 33.8636C386.256 33.5 387.369 33.3182 388.589 33.3182C389.43 33.3182 390.267 33.4167 391.1 33.6136C391.934 33.8106 392.695 34.1364 393.384 34.5909C394.074 35.0379 394.627 35.6477 395.043 36.4205C395.468 37.1932 395.68 38.1591 395.68 39.3182V51H391.725V48.6023H391.589C391.339 49.0871 390.987 49.5417 390.532 49.9659C390.085 50.3826 389.521 50.7197 388.839 50.9773C388.165 51.2273 387.373 51.3523 386.464 51.3523ZM387.532 48.3295C388.358 48.3295 389.074 48.1667 389.68 47.8409C390.286 47.5076 390.752 47.0682 391.078 46.5227C391.411 45.9773 391.578 45.3826 391.578 44.7386V42.6818C391.449 42.7879 391.229 42.8864 390.918 42.9773C390.615 43.0682 390.274 43.1477 389.896 43.2159C389.517 43.2841 389.142 43.3447 388.771 43.3977C388.399 43.4508 388.078 43.4962 387.805 43.5341C387.191 43.6174 386.642 43.7538 386.157 43.9432C385.672 44.1326 385.29 44.3977 385.009 44.7386C384.729 45.072 384.589 45.5038 384.589 46.0341C384.589 46.7917 384.865 47.3636 385.418 47.75C385.971 48.1364 386.676 48.3295 387.532 48.3295ZM409.99 51.3409C408.247 51.3409 406.751 50.9583 405.501 50.1932C404.259 49.428 403.3 48.3712 402.626 47.0227C401.959 45.6667 401.626 44.1061 401.626 42.3409C401.626 40.5682 401.967 39.0038 402.649 37.6477C403.331 36.2841 404.293 35.2235 405.535 34.4659C406.785 33.7008 408.263 33.3182 409.967 33.3182C411.384 33.3182 412.638 33.5795 413.728 34.1023C414.827 34.6174 415.702 35.3485 416.353 36.2955C417.005 37.2348 417.376 38.3333 417.467 39.5909H413.535C413.376 38.75 412.997 38.0492 412.399 37.4886C411.808 36.9205 411.016 36.6364 410.024 36.6364C409.183 36.6364 408.444 36.8636 407.808 37.3182C407.172 37.7652 406.675 38.4091 406.319 39.25C405.971 40.0909 405.797 41.0985 405.797 42.2727C405.797 43.4621 405.971 44.4848 406.319 45.3409C406.668 46.1894 407.156 46.8447 407.785 47.3068C408.422 47.7614 409.168 47.9886 410.024 47.9886C410.63 47.9886 411.172 47.875 411.649 47.6477C412.134 47.4129 412.539 47.0758 412.865 46.6364C413.191 46.197 413.414 45.6629 413.535 45.0341H417.467C417.369 46.2689 417.005 47.3636 416.376 48.3182C415.747 49.2652 414.891 50.0076 413.808 50.5455C412.725 51.0758 411.452 51.3409 409.99 51.3409ZM427.155 45.5227L427.144 40.5568H427.803L434.075 33.5455H438.882L431.166 42.1364H430.314L427.155 45.5227ZM423.405 51V27.7273H427.519V51H423.405ZM434.359 51L428.678 43.0568L431.45 40.1591L439.28 51H434.359ZM457.979 38.1591L454.229 38.5682C454.123 38.1894 453.937 37.8333 453.672 37.5C453.415 37.1667 453.066 36.8977 452.627 36.6932C452.187 36.4886 451.65 36.3864 451.013 36.3864C450.157 36.3864 449.437 36.572 448.854 36.9432C448.278 37.3144 447.994 37.7955 448.002 38.3864C447.994 38.8939 448.18 39.3068 448.559 39.625C448.945 39.9432 449.581 40.2045 450.468 40.4091L453.445 41.0455C455.097 41.4015 456.324 41.9659 457.127 42.7386C457.937 43.5114 458.347 44.5227 458.354 45.7727C458.347 46.8712 458.025 47.8409 457.388 48.6818C456.759 49.5152 455.884 50.1667 454.763 50.6364C453.642 51.1061 452.354 51.3409 450.9 51.3409C448.763 51.3409 447.043 50.8939 445.74 50C444.437 49.0985 443.661 47.8447 443.411 46.2386L447.422 45.8523C447.604 46.6402 447.99 47.2348 448.581 47.6364C449.172 48.0379 449.941 48.2386 450.888 48.2386C451.865 48.2386 452.65 48.0379 453.24 47.6364C453.839 47.2348 454.138 46.7386 454.138 46.1477C454.138 45.6477 453.945 45.2348 453.559 44.9091C453.18 44.5833 452.589 44.3333 451.786 44.1591L448.809 43.5341C447.134 43.1856 445.896 42.5985 445.093 41.7727C444.29 40.9394 443.892 39.8864 443.9 38.6136C443.892 37.5379 444.184 36.6061 444.775 35.8182C445.373 35.0227 446.203 34.4091 447.263 33.9773C448.331 33.5379 449.562 33.3182 450.956 33.3182C453.002 33.3182 454.612 33.7538 455.786 34.625C456.968 35.4962 457.699 36.6742 457.979 38.1591ZM481.758 51.3409C480.167 51.3409 478.8 51.053 477.656 50.4773C476.512 49.9015 475.629 49.125 475.008 48.1477C474.395 47.1629 474.088 46.053 474.088 44.8182C474.088 43.8864 474.277 43.0606 474.656 42.3409C475.042 41.6212 475.573 40.9545 476.247 40.3409C476.929 39.7273 477.717 39.1174 478.61 38.5114L482.735 35.7045C483.342 35.3106 483.8 34.8939 484.11 34.4545C484.429 34.0152 484.588 33.5 484.588 32.9091C484.588 32.4091 484.376 31.9356 483.951 31.4886C483.535 31.0417 482.959 30.8182 482.224 30.8182C481.732 30.8182 481.296 30.9356 480.917 31.1705C480.546 31.3977 480.254 31.697 480.042 32.0682C479.838 32.4394 479.735 32.8333 479.735 33.25C479.735 33.7576 479.876 34.2727 480.156 34.7955C480.444 35.3182 480.815 35.8598 481.27 36.4205C481.732 36.9811 482.224 37.5758 482.747 38.2045L493.667 51H489.213L480.145 40.6136C479.47 39.8258 478.819 39.0492 478.19 38.2841C477.569 37.5189 477.057 36.7235 476.656 35.8977C476.262 35.0644 476.065 34.1629 476.065 33.1932C476.065 32.0947 476.319 31.1136 476.826 30.25C477.334 29.3788 478.042 28.6932 478.951 28.1932C479.868 27.6932 480.94 27.4432 482.167 27.4432C483.395 27.4432 484.448 27.6856 485.326 28.1705C486.205 28.6553 486.883 29.2992 487.36 30.1023C487.838 30.9053 488.076 31.7803 488.076 32.7273C488.076 33.8258 487.804 34.8106 487.258 35.6818C486.713 36.5455 485.955 37.3295 484.985 38.0341L480.281 41.4773C479.508 42.0379 478.955 42.6061 478.622 43.1818C478.288 43.75 478.122 44.2348 478.122 44.6364C478.122 45.25 478.277 45.8068 478.588 46.3068C478.898 46.8068 479.334 47.2083 479.895 47.5114C480.463 47.8068 481.126 47.9545 481.883 47.9545C482.717 47.9545 483.538 47.7689 484.349 47.3977C485.16 47.0189 485.898 46.4811 486.565 45.7841C487.232 45.0871 487.762 44.2538 488.156 43.2841C488.55 42.3068 488.747 41.2235 488.747 40.0341H492.281C492.281 41.5038 492.118 42.7841 491.792 43.875C491.467 44.9583 491.046 45.875 490.531 46.625C490.016 47.3674 489.47 47.9621 488.895 48.4091C488.713 48.5379 488.538 48.6667 488.372 48.7955C488.205 48.9242 488.031 49.053 487.849 49.1818C487.031 49.9242 486.073 50.4697 484.974 50.8182C483.883 51.1667 482.811 51.3409 481.758 51.3409ZM508.239 31.2614V27.7273H526.807V31.2614H519.614V51H515.432V31.2614H508.239ZM537.961 51.3409C536.211 51.3409 534.7 50.9773 533.427 50.25C532.162 49.5152 531.188 48.4773 530.506 47.1364C529.825 45.7879 529.484 44.2008 529.484 42.375C529.484 40.5795 529.825 39.0038 530.506 37.6477C531.196 36.2841 532.158 35.2235 533.393 34.4659C534.628 33.7008 536.078 33.3182 537.745 33.3182C538.821 33.3182 539.836 33.4924 540.79 33.8409C541.753 34.1818 542.601 34.7121 543.336 35.4318C544.078 36.1515 544.662 37.0682 545.086 38.1818C545.51 39.2879 545.722 40.6061 545.722 42.1364V43.3977H531.415V40.625H541.779C541.772 39.8371 541.601 39.1364 541.268 38.5227C540.934 37.9015 540.468 37.4129 539.87 37.0568C539.279 36.7008 538.59 36.5227 537.802 36.5227C536.961 36.5227 536.222 36.7273 535.586 37.1364C534.95 37.5379 534.453 38.0682 534.097 38.7273C533.749 39.3788 533.571 40.0947 533.563 40.875V43.2955C533.563 44.3106 533.749 45.1818 534.12 45.9091C534.491 46.6288 535.01 47.1818 535.677 47.5682C536.343 47.947 537.124 48.1364 538.018 48.1364C538.616 48.1364 539.158 48.053 539.643 47.8864C540.128 47.7121 540.548 47.4583 540.904 47.125C541.26 46.7917 541.529 46.3788 541.711 45.8864L545.552 46.3182C545.309 47.3333 544.847 48.2197 544.165 48.9773C543.491 49.7273 542.628 50.3106 541.575 50.7273C540.522 51.1364 539.317 51.3409 537.961 51.3409ZM559.376 51.3409C557.634 51.3409 556.137 50.9583 554.887 50.1932C553.645 49.428 552.687 48.3712 552.012 47.0227C551.346 45.6667 551.012 44.1061 551.012 42.3409C551.012 40.5682 551.353 39.0038 552.035 37.6477C552.717 36.2841 553.679 35.2235 554.921 34.4659C556.171 33.7008 557.649 33.3182 559.353 33.3182C560.77 33.3182 562.024 33.5795 563.115 34.1023C564.213 34.6174 565.088 35.3485 565.74 36.2955C566.391 37.2348 566.762 38.3333 566.853 39.5909H562.921C562.762 38.75 562.384 38.0492 561.785 37.4886C561.194 36.9205 560.403 36.6364 559.41 36.6364C558.569 36.6364 557.831 36.8636 557.194 37.3182C556.558 37.7652 556.062 38.4091 555.706 39.25C555.357 40.0909 555.183 41.0985 555.183 42.2727C555.183 43.4621 555.357 44.4848 555.706 45.3409C556.054 46.1894 556.543 46.8447 557.171 47.3068C557.808 47.7614 558.554 47.9886 559.41 47.9886C560.016 47.9886 560.558 47.875 561.035 47.6477C561.52 47.4129 561.925 47.0758 562.251 46.6364C562.577 46.197 562.8 45.6629 562.921 45.0341H566.853C566.755 46.2689 566.391 47.3636 565.762 48.3182C565.134 49.2652 564.278 50.0076 563.194 50.5455C562.111 51.0758 560.838 51.3409 559.376 51.3409ZM576.905 40.7727V51H572.791V27.7273H576.814V36.5114H577.018C577.427 35.5265 578.06 34.75 578.916 34.1818C579.78 33.6061 580.878 33.3182 582.212 33.3182C583.424 33.3182 584.481 33.572 585.382 34.0795C586.284 34.5871 586.981 35.3295 587.473 36.3068C587.973 37.2841 588.223 38.4773 588.223 39.8864V51H584.109V40.5227C584.109 39.3485 583.806 38.4356 583.2 37.7841C582.602 37.125 581.761 36.7955 580.677 36.7955C579.95 36.7955 579.299 36.9545 578.723 37.2727C578.155 37.5833 577.708 38.0341 577.382 38.625C577.064 39.2159 576.905 39.9318 576.905 40.7727ZM599.09 40.7727V51H594.976V33.5455H598.908V36.5114H599.112C599.514 35.5341 600.154 34.7576 601.033 34.1818C601.919 33.6061 603.014 33.3182 604.317 33.3182C605.522 33.3182 606.571 33.5758 607.465 34.0909C608.366 34.6061 609.063 35.3523 609.556 36.3295C610.056 37.3068 610.302 38.4924 610.294 39.8864V51H606.181V40.5227C606.181 39.3561 605.878 38.4432 605.272 37.7841C604.673 37.125 603.844 36.7955 602.783 36.7955C602.063 36.7955 601.423 36.9545 600.862 37.2727C600.309 37.5833 599.874 38.0341 599.556 38.625C599.245 39.2159 599.09 39.9318 599.09 40.7727ZM624.65 51.3409C622.945 51.3409 621.468 50.9659 620.218 50.2159C618.968 49.4659 617.998 48.4167 617.309 47.0682C616.627 45.7197 616.286 44.1439 616.286 42.3409C616.286 40.5379 616.627 38.9583 617.309 37.6023C617.998 36.2462 618.968 35.1932 620.218 34.4432C621.468 33.6932 622.945 33.3182 624.65 33.3182C626.354 33.3182 627.832 33.6932 629.082 34.4432C630.332 35.1932 631.297 36.2462 631.979 37.6023C632.669 38.9583 633.013 40.5379 633.013 42.3409C633.013 44.1439 632.669 45.7197 631.979 47.0682C631.297 48.4167 630.332 49.4659 629.082 50.2159C627.832 50.9659 626.354 51.3409 624.65 51.3409ZM624.672 48.0455C625.597 48.0455 626.369 47.7917 626.991 47.2841C627.612 46.7689 628.074 46.0795 628.377 45.2159C628.688 44.3523 628.843 43.3902 628.843 42.3295C628.843 41.2614 628.688 40.2955 628.377 39.4318C628.074 38.5606 627.612 37.8674 626.991 37.3523C626.369 36.8371 625.597 36.5795 624.672 36.5795C623.726 36.5795 622.938 36.8371 622.309 37.3523C621.688 37.8674 621.222 38.5606 620.911 39.4318C620.608 40.2955 620.457 41.2614 620.457 42.3295C620.457 43.3902 620.608 44.3523 620.911 45.2159C621.222 46.0795 621.688 46.7689 622.309 47.2841C622.938 47.7917 623.726 48.0455 624.672 48.0455ZM643.179 27.7273V51H639.065V27.7273H643.179ZM657.582 51.3409C655.878 51.3409 654.4 50.9659 653.15 50.2159C651.9 49.4659 650.931 48.4167 650.241 47.0682C649.56 45.7197 649.219 44.1439 649.219 42.3409C649.219 40.5379 649.56 38.9583 650.241 37.6023C650.931 36.2462 651.9 35.1932 653.15 34.4432C654.4 33.6932 655.878 33.3182 657.582 33.3182C659.287 33.3182 660.764 33.6932 662.014 34.4432C663.264 35.1932 664.23 36.2462 664.912 37.6023C665.601 38.9583 665.946 40.5379 665.946 42.3409C665.946 44.1439 665.601 45.7197 664.912 47.0682C664.23 48.4167 663.264 49.4659 662.014 50.2159C660.764 50.9659 659.287 51.3409 657.582 51.3409ZM657.605 48.0455C658.529 48.0455 659.302 47.7917 659.923 47.2841C660.544 46.7689 661.006 46.0795 661.31 45.2159C661.62 44.3523 661.775 43.3902 661.775 42.3295C661.775 41.2614 661.62 40.2955 661.31 39.4318C661.006 38.5606 660.544 37.8674 659.923 37.3523C659.302 36.8371 658.529 36.5795 657.605 36.5795C656.658 36.5795 655.87 36.8371 655.241 37.3523C654.62 37.8674 654.154 38.5606 653.844 39.4318C653.541 40.2955 653.389 41.2614 653.389 42.3295C653.389 43.3902 653.541 44.3523 653.844 45.2159C654.154 46.0795 654.62 46.7689 655.241 47.2841C655.87 47.7917 656.658 48.0455 657.605 48.0455ZM679.588 57.9091C678.111 57.9091 676.842 57.7083 675.782 57.3068C674.721 56.9129 673.869 56.3826 673.225 55.7159C672.581 55.0492 672.134 54.3106 671.884 53.5L675.588 52.6023C675.755 52.9432 675.997 53.2803 676.316 53.6136C676.634 53.9545 677.062 54.2348 677.6 54.4545C678.145 54.6818 678.831 54.7955 679.657 54.7955C680.823 54.7955 681.789 54.5114 682.554 53.9432C683.319 53.3826 683.702 52.4583 683.702 51.1705V47.8636H683.497C683.285 48.2879 682.975 48.7235 682.566 49.1705C682.164 49.6174 681.63 49.9924 680.963 50.2955C680.304 50.5985 679.475 50.75 678.475 50.75C677.134 50.75 675.918 50.4356 674.827 49.8068C673.744 49.1705 672.88 48.2235 672.236 46.9659C671.6 45.7008 671.282 44.1174 671.282 42.2159C671.282 40.2992 671.6 38.6818 672.236 37.3636C672.88 36.0379 673.747 35.0341 674.838 34.3523C675.929 33.6629 677.145 33.3182 678.486 33.3182C679.509 33.3182 680.35 33.4924 681.009 33.8409C681.675 34.1818 682.206 34.5947 682.6 35.0795C682.994 35.5568 683.293 36.0076 683.497 36.4318H683.725V33.5455H687.782V51.2841C687.782 52.7765 687.425 54.0114 686.713 54.9886C686.001 55.9659 685.028 56.697 683.793 57.1818C682.558 57.6667 681.157 57.9091 679.588 57.9091ZM679.622 47.5227C680.494 47.5227 681.236 47.3106 681.85 46.8864C682.463 46.4621 682.929 45.8523 683.247 45.0568C683.566 44.2614 683.725 43.3068 683.725 42.1932C683.725 41.0947 683.566 40.1326 683.247 39.3068C682.937 38.4811 682.475 37.8409 681.861 37.3864C681.255 36.9242 680.509 36.6932 679.622 36.6932C678.706 36.6932 677.941 36.9318 677.327 37.4091C676.713 37.8864 676.251 38.5417 675.941 39.375C675.63 40.2008 675.475 41.1402 675.475 42.1932C675.475 43.2614 675.63 44.197 675.941 45C676.259 45.7955 676.725 46.4167 677.338 46.8636C677.96 47.303 678.721 47.5227 679.622 47.5227ZM694.557 51V33.5455H698.671V51H694.557ZM696.626 31.0682C695.974 31.0682 695.413 30.8523 694.944 30.4205C694.474 29.9811 694.239 29.4545 694.239 28.8409C694.239 28.2197 694.474 27.6932 694.944 27.2614C695.413 26.822 695.974 26.6023 696.626 26.6023C697.285 26.6023 697.845 26.822 698.307 27.2614C698.777 27.6932 699.012 28.2197 699.012 28.8409C699.012 29.4545 698.777 29.9811 698.307 30.4205C697.845 30.8523 697.285 31.0682 696.626 31.0682ZM713.188 51.3409C711.438 51.3409 709.927 50.9773 708.654 50.25C707.389 49.5152 706.416 48.4773 705.734 47.1364C705.052 45.7879 704.711 44.2008 704.711 42.375C704.711 40.5795 705.052 39.0038 705.734 37.6477C706.423 36.2841 707.385 35.2235 708.62 34.4659C709.855 33.7008 711.306 33.3182 712.973 33.3182C714.048 33.3182 715.063 33.4924 716.018 33.8409C716.98 34.1818 717.829 34.7121 718.563 35.4318C719.306 36.1515 719.889 37.0682 720.313 38.1818C720.738 39.2879 720.95 40.6061 720.95 42.1364V43.3977H706.643V40.625H717.007C716.999 39.8371 716.829 39.1364 716.495 38.5227C716.162 37.9015 715.696 37.4129 715.098 37.0568C714.507 36.7008 713.817 36.5227 713.029 36.5227C712.188 36.5227 711.45 36.7273 710.813 37.1364C710.177 37.5379 709.681 38.0682 709.325 38.7273C708.976 39.3788 708.798 40.0947 708.791 40.875V43.2955C708.791 44.3106 708.976 45.1818 709.348 45.9091C709.719 46.6288 710.238 47.1818 710.904 47.5682C711.571 47.947 712.351 48.1364 713.245 48.1364C713.844 48.1364 714.385 48.053 714.87 47.8864C715.355 47.7121 715.776 47.4583 716.132 47.125C716.488 46.7917 716.757 46.3788 716.938 45.8864L720.779 46.3182C720.537 47.3333 720.075 48.2197 719.393 48.9773C718.719 49.7273 717.855 50.3106 716.802 50.7273C715.749 51.1364 714.545 51.3409 713.188 51.3409ZM740.785 38.1591L737.035 38.5682C736.929 38.1894 736.744 37.8333 736.478 37.5C736.221 37.1667 735.872 36.8977 735.433 36.6932C734.994 36.4886 734.456 36.3864 733.819 36.3864C732.963 36.3864 732.244 36.572 731.66 36.9432C731.085 37.3144 730.8 37.7955 730.808 38.3864C730.8 38.8939 730.986 39.3068 731.365 39.625C731.751 39.9432 732.388 40.2045 733.274 40.4091L736.251 41.0455C737.903 41.4015 739.13 41.9659 739.933 42.7386C740.744 43.5114 741.153 44.5227 741.16 45.7727C741.153 46.8712 740.831 47.8409 740.194 48.6818C739.566 49.5152 738.691 50.1667 737.569 50.6364C736.448 51.1061 735.16 51.3409 733.706 51.3409C731.569 51.3409 729.85 50.8939 728.547 50C727.244 49.0985 726.467 47.8447 726.217 46.2386L730.228 45.8523C730.41 46.6402 730.797 47.2348 731.388 47.6364C731.978 48.0379 732.747 48.2386 733.694 48.2386C734.672 48.2386 735.456 48.0379 736.047 47.6364C736.645 47.2348 736.944 46.7386 736.944 46.1477C736.944 45.6477 736.751 45.2348 736.365 44.9091C735.986 44.5833 735.395 44.3333 734.592 44.1591L731.615 43.5341C729.941 43.1856 728.702 42.5985 727.899 41.7727C727.096 40.9394 726.698 39.8864 726.706 38.6136C726.698 37.5379 726.99 36.6061 727.581 35.8182C728.179 35.0227 729.009 34.4091 730.069 33.9773C731.138 33.5379 732.369 33.3182 733.763 33.3182C735.808 33.3182 737.418 33.7538 738.592 34.625C739.774 35.4962 740.505 36.6742 740.785 38.1591Z" fill="#7DA7C0"/>
<path d="M277 107.953C265.402 107.953 256 112.899 256 119C256 125.101 265.402 130.047 277 130.047C288.598 130.047 298 125.101 298 119C298 112.899 288.598 107.953 277 107.953ZM275.037 111.172H277.43V111.173L276.858 114.115H278.989C280.33 114.115 281.256 114.349 281.764 114.817C282.274 115.285 282.427 116.043 282.223 117.091L281.221 122.242H278.791L279.743 117.344C279.851 116.787 279.811 116.407 279.623 116.204C279.435 116.002 279.035 115.901 278.423 115.901H276.51L275.278 122.242H272.886L275.037 111.172ZM264.771 114.115H269.408C270.804 114.115 271.821 114.482 272.461 115.214C273.101 115.946 273.293 116.968 273.038 118.281C272.933 118.821 272.755 119.316 272.505 119.764C272.255 120.212 271.928 120.621 271.524 120.993C271.042 121.443 270.507 121.764 269.919 121.956C269.33 122.148 268.58 122.243 267.669 122.243H265.604L265.031 125.186H262.619L264.771 114.115ZM283.594 114.115H288.23C289.626 114.115 290.643 114.482 291.283 115.214H291.284C291.924 115.946 292.116 116.968 291.861 118.281C291.756 118.821 291.579 119.316 291.329 119.764C291.079 120.212 290.751 120.621 290.347 120.993C289.866 121.443 289.33 121.764 288.741 121.956C288.153 122.148 287.403 122.243 286.492 122.243H284.426L283.854 125.186H281.442L283.594 114.115ZM266.843 115.863L265.943 120.496H267.409C268.382 120.496 269.106 120.313 269.582 119.947C270.058 119.581 270.379 118.969 270.546 118.112C270.705 117.289 270.632 116.708 270.327 116.37C270.022 116.032 269.412 115.862 268.495 115.862L266.843 115.863ZM285.665 115.863L284.765 120.496H286.231C287.204 120.496 287.928 120.313 288.404 119.947C288.88 119.581 289.201 118.969 289.367 118.112C289.527 117.289 289.454 116.708 289.149 116.37C288.845 116.032 288.234 115.862 287.317 115.862L285.665 115.863Z" fill="white"/>
<g clip-path="url(#clip0_31_169)">
<path d="M337.772 113.422H370.476V137.595H337.772V113.422Z" fill="white"/>
<path d="M330.826 118.97V139.478H371.841V98.4626H330.826V118.97ZM363.878 117.33C364.86 117.558 365.753 118.072 366.443 118.806C366.824 119.202 367.154 119.643 367.428 120.119C367.428 120.171 365.656 121.369 364.576 122.038C364.537 122.065 364.38 121.894 364.206 121.635C364.009 121.295 363.729 121.01 363.392 120.808C363.055 120.605 362.672 120.491 362.28 120.477C361.036 120.391 360.235 121.044 360.242 122.117C360.232 122.384 360.293 122.649 360.419 122.885C360.691 123.453 361.2 123.791 362.795 124.48C365.731 125.743 366.988 126.576 367.769 127.761C368.642 129.073 368.836 131.193 368.245 132.762C367.589 134.468 365.981 135.626 363.707 136.01C362.668 136.129 361.619 136.118 360.583 135.977C358.996 135.715 357.533 134.953 356.409 133.802C356.032 133.385 355.297 132.299 355.343 132.22C355.463 132.131 355.589 132.051 355.72 131.981L357.24 131.141L358.418 130.458L358.664 130.822C359.079 131.416 359.608 131.923 360.219 132.312C361.531 133.001 363.323 132.906 364.209 132.109C364.506 131.816 364.692 131.429 364.733 131.014C364.775 130.599 364.669 130.183 364.435 129.838C364.107 129.382 363.451 128.998 361.617 128.197C359.5 127.285 358.588 126.721 357.755 125.822C357.235 125.228 356.85 124.528 356.629 123.771C356.464 122.905 356.44 122.019 356.557 121.146C356.993 119.102 358.526 117.674 360.764 117.251C361.8 117.123 362.85 117.152 363.878 117.336V117.33ZM354.25 119.049V120.729H348.925V135.898H345.148V120.726H339.81V119.085C339.793 118.52 339.806 117.953 339.849 117.389C339.875 117.359 343.13 117.359 347.068 117.359H354.231L354.25 119.049Z" fill="#007ACC"/>
</g>
<path d="M425.667 113.75C435.437 113.75 441.417 117.149 441.417 119C441.417 120.851 435.437 124.25 425.667 124.25C415.896 124.25 409.917 120.851 409.917 119C409.917 117.149 415.896 113.75 425.667 113.75ZM425.667 111.125C415.518 111.125 407.292 114.65 407.292 119C407.292 123.35 415.518 126.875 425.667 126.875C435.815 126.875 444.042 123.35 444.042 119C444.042 114.65 435.815 111.125 425.667 111.125Z" fill="#00BCD4"/>
<path d="M425.667 116.375C425.147 116.375 424.64 116.529 424.208 116.817C423.777 117.106 423.44 117.516 423.241 117.995C423.043 118.475 422.991 119.003 423.092 119.512C423.193 120.021 423.443 120.489 423.81 120.856C424.178 121.223 424.645 121.473 425.155 121.575C425.664 121.676 426.192 121.624 426.671 121.425C427.151 121.227 427.561 120.89 427.849 120.458C428.138 120.027 428.292 119.519 428.292 119C428.292 118.304 428.015 117.636 427.523 117.144C427.03 116.652 426.363 116.375 425.667 116.375Z" fill="#00BCD4"/>
<path d="M418.393 105.228C421.04 105.228 426.185 109.398 430.213 116.375C435.098 124.837 435.144 131.714 433.542 132.639C433.357 132.735 433.15 132.781 432.942 132.771C430.295 132.771 425.148 128.602 421.12 121.625C416.235 113.163 416.189 106.286 417.792 105.36C417.977 105.264 418.184 105.218 418.393 105.228ZM418.391 102.604C417.723 102.592 417.063 102.758 416.479 103.086C412.712 105.261 413.773 114.149 418.847 122.937C423.157 130.406 428.979 135.397 432.943 135.397C433.612 135.408 434.271 135.241 434.854 134.913C438.621 132.739 437.561 123.851 432.486 115.062C428.176 107.594 422.354 102.603 418.39 102.603L418.391 102.604Z" fill="#00BCD4"/>
<path d="M432.942 105.228C433.15 105.218 433.357 105.263 433.542 105.359C435.144 106.286 435.098 113.163 430.213 121.625C426.184 128.602 421.039 132.772 418.391 132.772C418.183 132.782 417.976 132.737 417.792 132.641C416.189 131.713 416.235 124.835 421.12 116.375C425.149 109.398 430.294 105.228 432.942 105.228ZM432.942 102.603C428.978 102.603 423.157 107.596 418.846 115.063C413.774 123.851 412.712 132.739 416.479 134.913C417.062 135.241 417.722 135.408 418.391 135.397C422.355 135.397 428.176 130.404 432.488 122.938C437.559 114.149 438.621 105.261 434.854 103.087C434.271 102.759 433.611 102.592 432.942 102.603Z" fill="#00BCD4"/>
<g clip-path="url(#clip1_31_169)">
<path d="M521 107.74C521 107.74 507 97.4379 496.17 99.8151L495.377 100.079C493.793 100.608 492.472 101.4 491.679 102.457L491.151 103.249L487.189 110.117L494.056 111.438C496.962 113.287 500.661 114.079 504.094 113.287L516.245 115.664L521 107.74Z" fill="#76B3E1"/>
<path opacity="0.3" d="M521 107.74C521 107.74 507 97.4379 496.17 99.8151L495.377 100.079C493.793 100.608 492.472 101.4 491.679 102.457L491.151 103.249L487.189 110.117L494.056 111.438C496.962 113.287 500.661 114.079 504.094 113.287L516.245 115.664L521 107.74Z" fill="url(#paint1_linear_31_169)"/>
<path d="M491.679 107.74L490.623 108.004C486.132 109.325 484.811 113.551 487.188 117.249C489.83 120.683 495.377 122.532 499.867 121.212L516.245 115.664C516.245 115.664 502.245 105.362 491.679 107.74Z" fill="#518AC8"/>
<path opacity="0.3" d="M491.679 107.74L490.623 108.004C486.132 109.325 484.811 113.551 487.188 117.249C489.83 120.683 495.377 122.532 499.867 121.212L516.245 115.664C516.245 115.664 502.245 105.362 491.679 107.74Z" fill="url(#paint2_linear_31_169)"/>
<path d="M513.34 119.627C511.861 117.779 509.864 116.415 507.605 115.709C505.346 115.003 502.928 114.988 500.661 115.664L484.283 120.947L479 130.193L508.585 135.211L513.868 125.702C514.924 123.853 514.66 121.74 513.34 119.626V119.627Z" fill="url(#paint3_linear_31_169)"/>
<path d="M508.056 128.872C506.577 127.024 504.581 125.66 502.322 124.954C500.063 124.249 497.645 124.233 495.377 124.91L479 130.192C479 130.192 493 140.759 503.83 138.117L504.623 137.853C509.113 136.532 510.698 132.305 508.056 128.872Z" fill="url(#paint4_linear_31_169)"/>
</g>
<path d="M580.077 101.106C580.396 101.502 580.559 102.036 580.883 103.104L587.989 126.445C585.32 125.06 582.455 124.09 579.494 123.569L574.868 107.936C574.831 107.811 574.755 107.701 574.651 107.623C574.547 107.545 574.42 107.503 574.29 107.503C574.16 107.503 574.033 107.545 573.929 107.624C573.825 107.702 573.749 107.812 573.713 107.937L569.142 123.562C566.168 124.08 563.29 125.052 560.61 126.442L567.749 103.099C568.076 102.033 568.239 101.499 568.558 101.103C568.84 100.754 569.206 100.483 569.622 100.316C570.092 100.128 570.651 100.128 571.766 100.128H576.866C577.983 100.128 578.541 100.128 579.013 100.318C579.429 100.485 579.795 100.756 580.077 101.106Z" fill="url(#paint5_linear_31_169)"/>
<path d="M580.927 127.556C579.755 128.558 577.417 129.241 574.724 129.241C571.42 129.241 568.649 128.212 567.914 126.827C567.652 127.621 567.593 128.528 567.593 129.109C567.593 129.109 567.42 131.956 569.4 133.936C569.4 133.691 569.448 133.449 569.541 133.224C569.635 132.998 569.772 132.793 569.945 132.62C570.118 132.447 570.323 132.31 570.549 132.217C570.775 132.123 571.017 132.075 571.261 132.075C573.023 132.075 573.022 133.612 573.021 134.86V134.97C573.021 136.865 574.178 138.488 575.824 139.172C575.57 138.651 575.439 138.079 575.439 137.499C575.439 135.692 576.499 135.02 577.732 134.238C578.713 133.617 579.802 132.926 580.552 131.541C580.957 130.794 581.169 129.958 581.167 129.109C581.168 128.582 581.086 128.058 580.927 127.556Z" fill="#FF5D01"/>
<path d="M580.927 127.556C579.755 128.558 577.417 129.241 574.724 129.241C571.42 129.241 568.649 128.212 567.914 126.827C567.652 127.621 567.593 128.528 567.593 129.109C567.593 129.109 567.42 131.956 569.4 133.936C569.4 133.691 569.448 133.449 569.541 133.224C569.635 132.998 569.772 132.793 569.945 132.62C570.118 132.447 570.323 132.31 570.549 132.217C570.775 132.123 571.017 132.075 571.261 132.075C573.023 132.075 573.022 133.612 573.021 134.86V134.97C573.021 136.865 574.178 138.488 575.824 139.172C575.57 138.651 575.439 138.079 575.439 137.499C575.439 135.692 576.499 135.02 577.732 134.238C578.713 133.617 579.802 132.926 580.552 131.541C580.957 130.794 581.169 129.958 581.167 129.109C581.168 128.582 581.086 128.058 580.927 127.556Z" fill="url(#paint6_linear_31_169)"/>
<g clip-path="url(#clip2_31_169)">
<path d="M664.989 111.781C664.904 111.694 664.816 111.609 664.726 111.528C664.637 111.447 664.553 111.356 664.464 111.275C664.375 111.194 664.291 111.102 664.201 111.022C664.112 110.941 664.028 110.849 663.939 110.768C663.85 110.687 663.766 110.596 663.676 110.515C663.587 110.434 663.503 110.343 663.414 110.262C663.325 110.181 663.241 110.09 663.151 110.009C665.755 112.477 667.247 115.834 667.304 119.354C667.304 127.743 658.474 134.567 647.617 134.567C641.537 134.567 636.098 132.426 632.481 129.069L632.743 129.322L633.006 129.575L633.268 129.829L633.531 130.082L633.793 130.335L634.056 130.588L634.318 130.841C637.93 134.34 643.49 136.592 649.717 136.592C660.574 136.592 669.404 129.768 669.404 121.405C669.404 117.831 667.808 114.444 664.989 111.781Z" fill="black"/>
<path d="M665.992 119.354C665.992 127.054 657.765 133.296 647.617 133.296C637.468 133.296 629.242 127.054 629.242 119.354C629.242 114.58 632.392 110.363 637.232 107.862C642.073 105.361 645.086 102.8 647.617 102.8C650.147 102.8 652.31 104.891 658.001 107.863C662.842 110.363 665.992 114.58 665.992 119.354Z" fill="#FBF0DF"/>
<path d="M665.992 119.354C665.989 118.364 665.848 117.379 665.572 116.428C664.138 133.286 642.813 134.096 634.429 129.054C638.197 131.871 642.848 133.367 647.617 133.296C657.749 133.296 665.992 127.044 665.992 119.354Z" fill="#F6DECE"/>
<path d="M640.545 106.936C642.892 105.579 646.01 103.033 649.076 103.028C648.603 102.881 648.112 102.804 647.617 102.8C646.346 102.8 644.992 103.433 643.285 104.385C642.692 104.719 642.078 105.088 641.427 105.473C640.204 106.202 638.802 107.027 637.227 107.852C632.229 110.46 629.242 114.758 629.242 119.354V119.957C632.423 109.118 638.203 108.293 640.545 106.936Z" fill="#FFFEFC"/>
<path d="M646.105 104.081C646.111 105.279 645.851 106.464 645.342 107.548C644.826 108.645 644.078 109.616 643.149 110.394C643.002 110.52 643.117 110.763 643.306 110.692C645.076 110.029 647.464 108.045 646.456 104.041C646.414 103.812 646.105 103.873 646.105 104.081ZM647.296 104.081C647.936 105.085 648.345 106.22 648.493 107.401C648.639 108.578 648.519 109.772 648.142 110.9C648.079 111.077 648.304 111.229 648.43 111.082C649.58 109.665 650.583 106.85 647.58 103.812C647.428 103.681 647.191 103.883 647.296 104.061V104.081ZM648.745 103.995C649.745 104.675 650.586 105.562 651.213 106.595C651.832 107.616 652.217 108.761 652.342 109.948C652.336 109.991 652.348 110.034 652.375 110.068C652.402 110.103 652.442 110.126 652.485 110.133C652.529 110.14 652.573 110.13 652.61 110.107C652.629 110.095 652.644 110.08 652.657 110.062C652.669 110.045 652.678 110.025 652.683 110.004C653.166 108.237 652.893 105.225 648.919 103.661C648.709 103.58 648.572 103.853 648.745 103.975V103.995ZM639.054 109.26C640.244 108.919 641.351 108.335 642.306 107.546C643.247 106.768 644.012 105.799 644.551 104.704C644.645 104.521 644.944 104.592 644.897 104.795C643.989 108.845 640.949 109.69 639.059 109.579C638.86 109.584 638.865 109.315 639.054 109.26Z" fill="#CCBEA7"/>
<path d="M647.617 134.567C636.76 134.567 627.929 127.743 627.929 119.354C627.929 114.292 631.174 109.569 636.607 106.739C638.182 105.928 639.532 105.113 640.734 104.4C641.395 104.005 642.02 103.635 642.624 103.291C644.467 102.238 646.042 101.534 647.617 101.534C649.192 101.534 650.567 102.142 652.289 103.124C652.814 103.413 653.339 103.726 653.901 104.071C655.208 104.85 656.683 105.731 658.626 106.739C664.06 109.569 667.304 114.287 667.304 119.354C667.304 127.743 658.474 134.567 647.617 134.567ZM647.617 102.8C646.346 102.8 644.992 103.433 643.285 104.385C642.692 104.719 642.078 105.088 641.427 105.473C640.204 106.202 638.802 107.027 637.227 107.852C632.229 110.46 629.242 114.758 629.242 119.354C629.242 127.044 637.484 133.302 647.617 133.302C657.749 133.302 665.992 127.044 665.992 119.354C665.992 114.757 663.004 110.46 658.001 107.862C656.017 106.85 654.468 105.898 653.213 105.149C652.641 104.81 652.116 104.496 651.638 104.218C650.047 103.306 648.887 102.8 647.617 102.8Z" fill="black"/>
<path d="M651.318 123.05C651.082 123.982 650.545 124.816 649.785 125.435C649.207 125.971 648.47 126.305 647.685 126.386C646.876 126.319 646.114 125.984 645.517 125.435C644.764 124.814 644.235 123.979 644.005 123.05C643.997 122.995 644.003 122.939 644.021 122.886C644.039 122.833 644.07 122.785 644.11 122.746C644.152 122.706 644.201 122.676 644.256 122.658C644.31 122.639 644.368 122.633 644.425 122.64H650.903C650.96 122.634 651.017 122.641 651.07 122.66C651.124 122.678 651.173 122.709 651.214 122.748C651.254 122.787 651.284 122.834 651.302 122.887C651.32 122.939 651.326 122.995 651.318 123.05Z" fill="#B71422"/>
<path d="M645.517 125.475C646.112 126.025 646.872 126.363 647.68 126.437C648.485 126.362 649.243 126.023 649.837 125.475C650.024 125.306 650.2 125.126 650.362 124.933C650.036 124.578 649.641 124.291 649.201 124.092C648.757 123.891 648.277 123.779 647.79 123.764C647.268 123.775 646.757 123.909 646.297 124.155C645.843 124.397 645.455 124.746 645.165 125.171C645.286 125.277 645.391 125.379 645.517 125.475Z" fill="#FF6164"/>
<path d="M645.601 125.075C645.863 124.748 646.196 124.485 646.575 124.305C646.958 124.122 647.376 124.025 647.8 124.022C648.581 124.042 649.328 124.346 649.9 124.878C650.021 124.751 650.137 124.619 650.247 124.488C649.579 123.874 648.696 123.526 647.774 123.511C647.283 123.515 646.798 123.624 646.352 123.831C645.911 124.035 645.52 124.333 645.207 124.705C645.331 124.836 645.462 124.959 645.601 125.075Z" fill="black"/>
<path d="M647.664 126.69C646.795 126.618 645.974 126.263 645.328 125.677C644.515 125.015 643.943 124.119 643.695 123.121C643.677 123.032 643.68 122.94 643.704 122.853C643.727 122.765 643.771 122.683 643.831 122.615C643.904 122.53 643.995 122.464 644.097 122.419C644.2 122.374 644.312 122.353 644.425 122.356H650.903C651.016 122.354 651.127 122.376 651.23 122.421C651.332 122.465 651.423 122.531 651.496 122.615C651.556 122.684 651.599 122.766 651.622 122.853C651.645 122.941 651.647 123.032 651.628 123.121C651.379 124.119 650.807 125.015 649.995 125.677C649.35 126.262 648.531 126.617 647.664 126.69ZM644.425 122.944C644.341 122.944 644.32 122.979 644.314 122.989C644.536 123.855 645.038 124.63 645.748 125.202C646.273 125.697 646.946 126.008 647.664 126.087C648.38 126.009 649.052 125.702 649.58 125.211C650.287 124.639 650.787 123.864 651.008 122.999C650.996 122.983 650.981 122.97 650.962 122.962C650.944 122.954 650.923 122.951 650.903 122.954L644.425 122.944Z" fill="black"/>
<path d="M655.607 123.364C657.303 123.364 658.678 122.584 658.678 121.622C658.678 120.661 657.303 119.881 655.607 119.881C653.911 119.881 652.536 120.661 652.536 121.622C652.536 122.584 653.911 123.364 655.607 123.364ZM639.715 123.364C641.412 123.364 642.787 122.584 642.787 121.622C642.787 120.661 641.412 119.881 639.715 119.881C638.019 119.881 636.644 120.661 636.644 121.622C636.644 122.584 638.019 123.364 639.715 123.364Z" fill="#FEBBD0"/>
<path d="M641.159 120.924C641.729 120.926 642.287 120.763 642.768 120.456C643.24 120.155 643.611 119.719 643.835 119.205C644.055 118.698 644.113 118.135 644.002 117.593C643.889 117.048 643.614 116.549 643.212 116.164C642.803 115.77 642.288 115.505 641.731 115.399C641.17 115.291 640.589 115.345 640.059 115.557C639.534 115.764 639.082 116.122 638.759 116.584C638.443 117.039 638.273 117.58 638.272 118.134C638.272 118.873 638.576 119.582 639.117 120.105C639.659 120.628 640.393 120.923 641.159 120.924ZM654.163 120.924C654.734 120.929 655.294 120.769 655.776 120.463C656.25 120.164 656.624 119.729 656.851 119.216C657.073 118.709 657.134 118.145 657.024 117.603C656.913 117.056 656.638 116.556 656.237 116.169C655.829 115.774 655.314 115.507 654.757 115.4C654.195 115.29 653.614 115.344 653.082 115.555C652.557 115.762 652.104 116.12 651.78 116.582C651.463 117.038 651.293 117.579 651.292 118.134C651.29 118.871 651.591 119.578 652.13 120.101C652.668 120.624 653.399 120.92 654.163 120.924Z" fill="black"/>
<path d="M640.267 118.312C640.481 118.313 640.691 118.252 640.872 118.137C641.051 118.023 641.191 117.859 641.274 117.668C641.357 117.477 641.379 117.266 641.338 117.062C641.296 116.857 641.193 116.67 641.042 116.524C640.889 116.376 640.695 116.276 640.486 116.236C640.275 116.195 640.057 116.216 639.857 116.295C639.66 116.373 639.49 116.507 639.368 116.681C639.249 116.852 639.185 117.055 639.185 117.264C639.185 117.541 639.299 117.806 639.501 118.003C639.707 118.201 639.981 118.311 640.267 118.312ZM653.271 118.312C653.485 118.313 653.695 118.252 653.876 118.137C654.055 118.023 654.195 117.859 654.278 117.668C654.361 117.477 654.384 117.266 654.342 117.062C654.3 116.857 654.197 116.67 654.046 116.524C653.893 116.376 653.7 116.276 653.49 116.236C653.279 116.195 653.061 116.216 652.861 116.295C652.664 116.373 652.494 116.507 652.373 116.681C652.253 116.852 652.189 117.055 652.189 117.264C652.189 117.539 652.302 117.803 652.502 117.999C652.702 118.195 652.975 118.308 653.26 118.312H653.271Z" fill="white"/>
</g>
<g clip-path="url(#clip3_31_169)">
<path d="M723 98.7546C711.811 98.7546 702.755 107.811 702.755 119C702.755 130.189 711.811 139.245 723 139.245C734.189 139.245 743.245 130.189 743.245 119C743.245 107.811 734.189 98.7546 723 98.7546ZM733.926 110.469C732.975 110.502 732.351 109.944 732.319 109.091C732.319 108.762 732.384 108.5 732.614 108.172C732.811 107.778 732.876 107.712 732.876 107.548C732.844 107.023 732.056 106.991 731.826 106.991C728.775 107.089 727.987 111.191 727.331 114.537L727.003 116.309C728.742 116.572 729.989 116.244 730.678 115.817C731.662 115.194 730.416 114.537 730.547 113.816C730.711 113.094 731.367 112.733 731.892 112.7C732.647 112.667 733.172 113.455 733.139 114.242C733.106 115.522 731.4 117.327 727.955 117.228C727.528 117.228 727.167 117.195 726.806 117.162L726.15 120.739C725.559 123.43 724.805 127.137 722.048 130.353C719.686 133.175 717.291 133.602 716.208 133.634C714.206 133.7 712.861 132.617 712.828 131.206C712.795 129.828 714.009 129.073 714.797 129.041C715.88 129.008 716.601 129.795 716.634 130.681C716.667 131.436 716.273 131.666 716.011 131.83C715.847 131.961 715.584 132.125 715.584 132.42C715.584 132.552 715.748 132.847 716.175 132.847C717.028 132.814 717.586 132.387 717.98 132.125C719.948 130.484 720.703 127.63 721.687 122.478L721.884 121.231C722.212 119.558 722.606 117.655 723.164 115.784C721.786 114.734 720.966 113.455 719.095 112.962C717.816 112.602 717.061 112.897 716.503 113.586C715.847 114.406 716.076 115.456 716.7 116.08L717.717 117.228C718.997 118.705 719.686 119.82 719.423 121.362C719.062 123.758 716.142 125.628 712.697 124.578C709.744 123.659 709.219 121.592 709.58 120.444C709.875 119.427 710.695 119.23 711.483 119.492C712.336 119.755 712.664 120.772 712.401 121.559C712.369 121.658 712.336 121.789 712.237 121.953C712.139 122.183 711.975 122.347 711.876 122.609C711.68 123.233 712.533 123.659 713.123 123.856C714.436 124.25 715.716 123.561 716.044 122.511C716.339 121.527 715.716 120.837 715.486 120.575L714.239 119.23C713.681 118.606 712.401 116.834 713.025 114.833C713.255 114.078 713.747 113.258 714.469 112.733C715.978 111.584 717.651 111.42 719.226 111.88C721.261 112.47 722.245 113.816 723.525 114.866C724.247 112.798 725.231 110.731 726.708 109.025C728.053 107.45 729.825 106.334 731.892 106.236C733.959 106.17 735.501 107.089 735.567 108.566C735.534 109.222 735.173 110.436 733.926 110.469Z" fill="#EAE7EB"/>
</g>
<defs>
<radialGradient id="paint0_radial_31_169" cx="0" cy="0" r="1" gradientUnits="userSpaceOnUse" gradientTransform="translate(500 160) scale(500 219.7)">
<stop stop-color="#191919"/>
<stop offset="1" stop-color="#2C2C2C"/>
</radialGradient>
<linearGradient id="paint1_linear_31_169" x1="485.208" y1="99.2869" x2="518.094" y2="115.268" gradientUnits="userSpaceOnUse">
<stop offset="0.1" stop-color="#76B3E1"/>
<stop offset="0.3" stop-color="#DCF2FD"/>
<stop offset="1" stop-color="#76B3E1"/>
</linearGradient>
<linearGradient id="paint2_linear_31_169" x1="503.249" y1="107.106" x2="497.491" y2="126.283" gradientUnits="userSpaceOnUse">
<stop stop-color="#76B3E1"/>
<stop offset="0.5" stop-color="#4377BB"/>
<stop offset="1" stop-color="#1F3B77"/>
</linearGradient>
<linearGradient id="paint3_linear_31_169" x1="482.804" y1="115.453" x2="516.06" y2="138.064" gradientUnits="userSpaceOnUse">
<stop stop-color="#315AA9"/>
<stop offset="0.5" stop-color="#518AC8"/>
<stop offset="1" stop-color="#315AA9"/>
</linearGradient>
<linearGradient id="paint4_linear_31_169" x1="497.808" y1="118.174" x2="484.389" y2="167.385" gradientUnits="userSpaceOnUse">
<stop stop-color="#4377BB"/>
<stop offset="0.5" stop-color="#1A336B"/>
<stop offset="1" stop-color="#1A336B"/>
</linearGradient>
<linearGradient id="paint5_linear_31_169" x1="582.307" y1="98.8896" x2="574.299" y2="126.445" gradientUnits="userSpaceOnUse">
<stop stop-color="#000014"/>
<stop offset="1" stop-color="#150426"/>
</linearGradient>
<linearGradient id="paint6_linear_31_169" x1="586.201" y1="119.408" x2="579.266" y2="133.927" gradientUnits="userSpaceOnUse">
<stop stop-color="#FF1639"/>
<stop offset="1" stop-color="#FF1639" stop-opacity="0"/>
</linearGradient>
<clipPath id="clip0_31_169">
<rect width="42" height="42" fill="white" transform="translate(330.333 98)"/>
</clipPath>
<clipPath id="clip1_31_169">
<rect width="42" height="42" fill="white" transform="translate(479 98)"/>
</clipPath>
<clipPath id="clip2_31_169">
<rect width="42" height="42" fill="white" transform="translate(627.667 98)"/>
</clipPath>
<clipPath id="clip3_31_169">
<rect width="42" height="42" fill="white" transform="translate(702 98)"/>
</clipPath>
</defs>
</svg>
